<?xml version="1.0" encoding="UTF-8" standalone="no"?>
<!DOCTYPE svg PUBLIC "-//W3C//DTD SVG 1.1//EN"
 "http://www.w3.org/Graphics/SVG/1.1/DTD/svg11.dtd">
<!-- Generated by graphviz version 12.2.1 (20241206.2353)
 -->
<!-- Title: Tree Pages: 1 -->
<svg width="576pt" height="386pt"
 viewBox="0.00 0.00 576.00 385.98" xmlns="http://www.w3.org/2000/svg" xmlns:xlink="http://www.w3.org/1999/xlink">
<g id="graph0" class="graph" transform="scale(0.457052 0.457052) rotate(0) translate(4 840.5)">
<title>Tree</title>
<polygon fill="white" stroke="none" points="-4,4 -4,-840.5 1256.25,-840.5 1256.25,4 -4,4"/>
<!-- 0 -->
<g id="node1" class="node">
<title>0</title>
<polygon fill="#ffffff" stroke="black" points="757.25,-836.5 525.25,-836.5 525.25,-781.25 757.25,-781.25 757.25,-836.5"/>
<text text-anchor="middle" x="641.25" y="-819.2" font-family="Helvetica,sans-Serif" font-size="14.00">RiskOfViolence_DecileScore &lt;= 5.5</text>
<text text-anchor="middle" x="641.25" y="-803.45" font-family="Helvetica,sans-Serif" font-size="14.00">samples = 1100</text>
<text text-anchor="middle" x="641.25" y="-787.7" font-family="Helvetica,sans-Serif" font-size="14.00">value = [550, 550]</text>
</g>
<!-- 1 -->
<g id="node2" class="node">
<title>1</title>
<polygon fill="#f8deca" stroke="black" points="562.5,-637.25 416,-637.25 416,-582 562.5,-582 562.5,-637.25"/>
<text text-anchor="middle" x="489.25" y="-619.95" font-family="Helvetica,sans-Serif" font-size="14.00">priors_count &lt;= 0.5</text>
<text text-anchor="middle" x="489.25" y="-604.2" font-family="Helvetica,sans-Serif" font-size="14.00">samples = 680</text>
<text text-anchor="middle" x="489.25" y="-588.45" font-family="Helvetica,sans-Serif" font-size="14.00">value = [392.0, 288.0]</text>
</g>
<!-- 0&#45;&gt;1 -->
<g id="edge1" class="edge">
<title>0&#45;&gt;1</title>
<path fill="none" stroke="black" d="M620.43,-780.86C593.56,-745.99 546.72,-685.2 516.89,-646.49"/>
<polygon fill="black" stroke="black" points="519.86,-644.61 510.98,-638.83 514.31,-648.88 519.86,-644.61"/>
<text text-anchor="middle" x="506.85" y="-657" font-family="Helvetica,sans-Serif" font-size="14.00">True</text>
</g>
<!-- 14 -->
<g id="node15" class="node">
<title>14</title>
<polygon fill="#b0d8f5" stroke="black" points="883.12,-637.25 719.38,-637.25 719.38,-582 883.12,-582 883.12,-637.25"/>
<text text-anchor="middle" x="801.25" y="-619.95" font-family="Helvetica,sans-Serif" font-size="14.00">c_charge_degree &lt;= 1.5</text>
<text text-anchor="middle" x="801.25" y="-604.2" font-family="Helvetica,sans-Serif" font-size="14.00">samples = 420</text>
<text text-anchor="middle" x="801.25" y="-588.45" font-family="Helvetica,sans-Serif" font-size="14.00">value = [158, 262]</text>
</g>
<!-- 0&#45;&gt;14 -->
<g id="edge14" class="edge">
<title>0&#45;&gt;14</title>
<path fill="none" stroke="black" d="M663.16,-780.86C691.45,-745.99 740.76,-685.2 772.16,-646.49"/>
<polygon fill="black" stroke="black" points="774.81,-648.77 778.39,-638.8 769.38,-644.36 774.81,-648.77"/>
<text text-anchor="middle" x="781.94" y="-657.07" font-family="Helvetica,sans-Serif" font-size="14.00">False</text>
</g>
<!-- 2 -->
<g id="node3" class="node">
<title>2</title>
<polygon fill="#f0b890" stroke="black" points="309.88,-438 30.62,-438 30.62,-382.75 309.88,-382.75 309.88,-438"/>
<text text-anchor="middle" x="170.25" y="-420.7" font-family="Helvetica,sans-Serif" font-size="14.00">RiskOfFailureToAppear_DecileScore &lt;= 8.5</text>
<text text-anchor="middle" x="170.25" y="-404.95" font-family="Helvetica,sans-Serif" font-size="14.00">samples = 210</text>
<text text-anchor="middle" x="170.25" y="-389.2" font-family="Helvetica,sans-Serif" font-size="14.00">value = [146, 64]</text>
</g>
<!-- 1&#45;&gt;2 -->
<g id="edge2" class="edge">
<title>1&#45;&gt;2</title>
<path fill="none" stroke="black" d="M445.56,-581.61C387.74,-545.86 285.86,-482.86 223.56,-444.34"/>
<polygon fill="black" stroke="black" points="225.55,-441.46 215.21,-439.17 221.87,-447.41 225.55,-441.46"/>
</g>
<!-- 7 -->
<g id="node8" class="node">
<title>7</title>
<polygon fill="#fdf4ed" stroke="black" points="605.25,-438 373.25,-438 373.25,-382.75 605.25,-382.75 605.25,-438"/>
<text text-anchor="middle" x="489.25" y="-420.7" font-family="Helvetica,sans-Serif" font-size="14.00">RiskOfViolence_DecileScore &lt;= 1.5</text>
<text text-anchor="middle" x="489.25" y="-404.95" font-family="Helvetica,sans-Serif" font-size="14.00">samples = 470</text>
<text text-anchor="middle" x="489.25" y="-389.2" font-family="Helvetica,sans-Serif" font-size="14.00">value = [246, 224]</text>
</g>
<!-- 1&#45;&gt;7 -->
<g id="edge7" class="edge">
<title>1&#45;&gt;7</title>
<path fill="none" stroke="black" d="M489.25,-581.61C489.25,-547.48 489.25,-488.51 489.25,-449.72"/>
<polygon fill="black" stroke="black" points="492.75,-449.89 489.25,-439.89 485.75,-449.89 492.75,-449.89"/>
</g>
<!-- 3 -->
<g id="node4" class="node">
<title>3</title>
<polygon fill="#f0b78d" stroke="black" points="116.5,-238.75 0,-238.75 0,-183.5 116.5,-183.5 116.5,-238.75"/>
<text text-anchor="middle" x="58.25" y="-221.45" font-family="Helvetica,sans-Serif" font-size="14.00">age &lt;= 39.5</text>
<text text-anchor="middle" x="58.25" y="-205.7" font-family="Helvetica,sans-Serif" font-size="14.00">samples = 208</text>
<text text-anchor="middle" x="58.25" y="-189.95" font-family="Helvetica,sans-Serif" font-size="14.00">value = [146, 62]</text>
</g>
<!-- 2&#45;&gt;3 -->
<g id="edge3" class="edge">
<title>2&#45;&gt;3</title>
<path fill="none" stroke="black" d="M154.91,-382.36C135.28,-347.78 101.18,-287.73 79.17,-248.97"/>
<polygon fill="black" stroke="black" points="82.31,-247.41 74.33,-240.44 76.22,-250.87 82.31,-247.41"/>
</g>
<!-- 6 -->
<g id="node7" class="node">
<title>6</title>
<polygon fill="#399de5" stroke="black" points="217.25,-230.88 123.25,-230.88 123.25,-191.38 217.25,-191.38 217.25,-230.88"/>
<text text-anchor="middle" x="170.25" y="-213.57" font-family="Helvetica,sans-Serif" font-size="14.00">samples = 2</text>
<text text-anchor="middle" x="170.25" y="-197.82" font-family="Helvetica,sans-Serif" font-size="14.00">value = [0, 2]</text>
</g>
<!-- 2&#45;&gt;6 -->
<g id="edge6" class="edge">
<title>2&#45;&gt;6</title>
<path fill="none" stroke="black" d="M170.25,-382.36C170.25,-345.8 170.25,-280.76 170.25,-242.53"/>
<polygon fill="black" stroke="black" points="173.75,-242.64 170.25,-232.64 166.75,-242.64 173.75,-242.64"/>
</g>
<!-- 4 -->
<g id="node5" class="node">
<title>4</title>
<polygon fill="#f1bd98" stroke="black" points="116.5,-39.5 0,-39.5 0,0 116.5,0 116.5,-39.5"/>
<text text-anchor="middle" x="58.25" y="-22.2" font-family="Helvetica,sans-Serif" font-size="14.00">samples = 179</text>
<text text-anchor="middle" x="58.25" y="-6.45" font-family="Helvetica,sans-Serif" font-size="14.00">value = [121, 58]</text>
</g>
<!-- 3&#45;&gt;4 -->
<g id="edge4" class="edge">
<title>3&#45;&gt;4</title>
<path fill="none" stroke="black" d="M58.25,-183.39C58.25,-148.59 58.25,-87.88 58.25,-51.29"/>
<polygon fill="black" stroke="black" points="61.75,-51.4 58.25,-41.4 54.75,-51.4 61.75,-51.4"/>
</g>
<!-- 5 -->
<g id="node6" class="node">
<title>5</title>
<polygon fill="#e99559" stroke="black" points="225,-39.5 123.5,-39.5 123.5,0 225,0 225,-39.5"/>
<text text-anchor="middle" x="174.25" y="-22.2" font-family="Helvetica,sans-Serif" font-size="14.00">samples = 29</text>
<text text-anchor="middle" x="174.25" y="-6.45" font-family="Helvetica,sans-Serif" font-size="14.00">value = [25, 4]</text>
</g>
<!-- 3&#45;&gt;5 -->
<g id="edge5" class="edge">
<title>3&#45;&gt;5</title>
<path fill="none" stroke="black" d="M74.62,-183.39C96.32,-147.98 134.43,-85.76 156.7,-49.41"/>
<polygon fill="black" stroke="black" points="159.5,-51.53 161.74,-41.17 153.53,-47.87 159.5,-51.53"/>
</g>
<!-- 8 -->
<g id="node9" class="node">
<title>8</title>
<polygon fill="#eead7e" stroke="black" points="503.88,-238.75 224.62,-238.75 224.62,-183.5 503.88,-183.5 503.88,-238.75"/>
<text text-anchor="middle" x="364.25" y="-221.45" font-family="Helvetica,sans-Serif" font-size="14.00">RiskOfFailureToAppear_DecileScore &lt;= 1.5</text>
<text text-anchor="middle" x="364.25" y="-205.7" font-family="Helvetica,sans-Serif" font-size="14.00">samples = 81</text>
<text text-anchor="middle" x="364.25" y="-189.95" font-family="Helvetica,sans-Serif" font-size="14.00">value = [60, 21]</text>
</g>
<!-- 7&#45;&gt;8 -->
<g id="edge8" class="edge">
<title>7&#45;&gt;8</title>
<path fill="none" stroke="black" d="M472.13,-382.36C450.13,-347.64 411.84,-287.22 387.29,-248.48"/>
<polygon fill="black" stroke="black" points="390.48,-246.98 382.17,-240.41 384.57,-250.73 390.48,-246.98"/>
</g>
<!-- 11 -->
<g id="node12" class="node">
<title>11</title>
<polygon fill="#eef7fd" stroke="black" points="657.5,-238.75 511,-238.75 511,-183.5 657.5,-183.5 657.5,-238.75"/>
<text text-anchor="middle" x="584.25" y="-221.45" font-family="Helvetica,sans-Serif" font-size="14.00">jail_duration &lt;= 37.5</text>
<text text-anchor="middle" x="584.25" y="-205.7" font-family="Helvetica,sans-Serif" font-size="14.00">samples = 389</text>
<text text-anchor="middle" x="584.25" y="-189.95" font-family="Helvetica,sans-Serif" font-size="14.00">value = [186.0, 203.0]</text>
</g>
<!-- 7&#45;&gt;11 -->
<g id="edge11" class="edge">
<title>7&#45;&gt;11</title>
<path fill="none" stroke="black" d="M502.26,-382.36C518.84,-347.93 547.59,-288.24 566.26,-249.47"/>
<polygon fill="black" stroke="black" points="569.4,-251.02 570.59,-240.49 563.1,-247.98 569.4,-251.02"/>
</g>
<!-- 9 -->
<g id="node10" class="node">
<title>9</title>
<polygon fill="#f7d9c4" stroke="black" points="340.75,-39.5 231.75,-39.5 231.75,0 340.75,0 340.75,-39.5"/>
<text text-anchor="middle" x="286.25" y="-22.2" font-family="Helvetica,sans-Serif" font-size="14.00">samples = 34</text>
<text text-anchor="middle" x="286.25" y="-6.45" font-family="Helvetica,sans-Serif" font-size="14.00">value = [20, 14]</text>
</g>
<!-- 8&#45;&gt;9 -->
<g id="edge9" class="edge">
<title>8&#45;&gt;9</title>
<path fill="none" stroke="black" d="M353.24,-183.39C338.78,-148.28 313.46,-86.82 298.44,-50.34"/>
<polygon fill="black" stroke="black" points="301.75,-49.19 294.71,-41.28 295.28,-51.86 301.75,-49.19"/>
</g>
<!-- 10 -->
<g id="node11" class="node">
<title>10</title>
<polygon fill="#ea975c" stroke="black" points="449,-39.5 347.5,-39.5 347.5,0 449,0 449,-39.5"/>
<text text-anchor="middle" x="398.25" y="-22.2" font-family="Helvetica,sans-Serif" font-size="14.00">samples = 47</text>
<text text-anchor="middle" x="398.25" y="-6.45" font-family="Helvetica,sans-Serif" font-size="14.00">value = [40, 7]</text>
</g>
<!-- 8&#45;&gt;10 -->
<g id="edge10" class="edge">
<title>8&#45;&gt;10</title>
<path fill="none" stroke="black" d="M369.05,-183.39C375.33,-148.43 386.29,-87.35 392.85,-50.82"/>
<polygon fill="black" stroke="black" points="396.23,-51.83 394.55,-41.37 389.34,-50.6 396.23,-51.83"/>
</g>
<!-- 12 -->
<g id="node13" class="node">
<title>12</title>
<polygon fill="#daedfa" stroke="black" points="580.25,-39.5 456.25,-39.5 456.25,0 580.25,0 580.25,-39.5"/>
<text text-anchor="middle" x="518.25" y="-22.2" font-family="Helvetica,sans-Serif" font-size="14.00">samples = 319</text>
<text text-anchor="middle" x="518.25" y="-6.45" font-family="Helvetica,sans-Serif" font-size="14.00">value = [143, 176]</text>
</g>
<!-- 11&#45;&gt;12 -->
<g id="edge12" class="edge">
<title>11&#45;&gt;12</title>
<path fill="none" stroke="black" d="M574.93,-183.39C562.7,-148.28 541.28,-86.82 528.56,-50.34"/>
<polygon fill="black" stroke="black" points="532.01,-49.6 525.42,-41.31 525.4,-51.91 532.01,-49.6"/>
</g>
<!-- 13 -->
<g id="node14" class="node">
<title>13</title>
<polygon fill="#f5d0b5" stroke="black" points="696.75,-39.5 587.75,-39.5 587.75,0 696.75,0 696.75,-39.5"/>
<text text-anchor="middle" x="642.25" y="-22.2" font-family="Helvetica,sans-Serif" font-size="14.00">samples = 70</text>
<text text-anchor="middle" x="642.25" y="-6.45" font-family="Helvetica,sans-Serif" font-size="14.00">value = [43, 27]</text>
</g>
<!-- 11&#45;&gt;13 -->
<g id="edge13" class="edge">
<title>11&#45;&gt;13</title>
<path fill="none" stroke="black" d="M592.44,-183.39C603.14,-148.43 621.85,-87.35 633.04,-50.82"/>
<polygon fill="black" stroke="black" points="636.37,-51.92 635.95,-41.33 629.67,-49.87 636.37,-51.92"/>
</g>
<!-- 15 -->
<g id="node16" class="node">
<title>15</title>
<polygon fill="#73baed" stroke="black" points="871.5,-438 731,-438 731,-382.75 871.5,-382.75 871.5,-438"/>
<text text-anchor="middle" x="801.25" y="-420.7" font-family="Helvetica,sans-Serif" font-size="14.00">priors_count &lt;= 28.0</text>
<text text-anchor="middle" x="801.25" y="-404.95" font-family="Helvetica,sans-Serif" font-size="14.00">samples = 75</text>
<text text-anchor="middle" x="801.25" y="-389.2" font-family="Helvetica,sans-Serif" font-size="14.00">value = [17, 58]</text>
</g>
<!-- 14&#45;&gt;15 -->
<g id="edge15" class="edge">
<title>14&#45;&gt;15</title>
<path fill="none" stroke="black" d="M801.25,-581.61C801.25,-547.48 801.25,-488.51 801.25,-449.72"/>
<polygon fill="black" stroke="black" points="804.75,-449.89 801.25,-439.89 797.75,-449.89 804.75,-449.89"/>
</g>
<!-- 20 -->
<g id="node21" class="node">
<title>20</title>
<polygon fill="#c2e1f7" stroke="black" points="1097.25,-438 973.25,-438 973.25,-382.75 1097.25,-382.75 1097.25,-438"/>
<text text-anchor="middle" x="1035.25" y="-420.7" font-family="Helvetica,sans-Serif" font-size="14.00">age &lt;= 41.5</text>
<text text-anchor="middle" x="1035.25" y="-404.95" font-family="Helvetica,sans-Serif" font-size="14.00">samples = 345</text>
<text text-anchor="middle" x="1035.25" y="-389.2" font-family="Helvetica,sans-Serif" font-size="14.00">value = [141, 204]</text>
</g>
<!-- 14&#45;&gt;20 -->
<g id="edge20" class="edge">
<title>14&#45;&gt;20</title>
<path fill="none" stroke="black" d="M833.3,-581.61C875.19,-546.3 948.61,-484.41 994.44,-445.78"/>
<polygon fill="black" stroke="black" points="996.67,-448.47 1002.06,-439.35 992.16,-443.12 996.67,-448.47"/>
</g>
<!-- 16 -->
<g id="node17" class="node">
<title>16</title>
<polygon fill="#70b8ec" stroke="black" points="811.5,-238.75 665,-238.75 665,-183.5 811.5,-183.5 811.5,-238.75"/>
<text text-anchor="middle" x="738.25" y="-221.45" font-family="Helvetica,sans-Serif" font-size="14.00">jail_duration &lt;= 512.5</text>
<text text-anchor="middle" x="738.25" y="-205.7" font-family="Helvetica,sans-Serif" font-size="14.00">samples = 74</text>
<text text-anchor="middle" x="738.25" y="-189.95" font-family="Helvetica,sans-Serif" font-size="14.00">value = [16, 58]</text>
</g>
<!-- 15&#45;&gt;16 -->
<g id="edge16" class="edge">
<title>15&#45;&gt;16</title>
<path fill="none" stroke="black" d="M792.62,-382.36C781.67,-348.08 762.72,-288.75 750.34,-249.97"/>
<polygon fill="black" stroke="black" points="753.71,-249.03 747.33,-240.57 747.04,-251.16 753.71,-249.03"/>
</g>
<!-- 19 -->
<g id="node20" class="node">
<title>19</title>
<polygon fill="#e58139" stroke="black" points="912.25,-230.88 818.25,-230.88 818.25,-191.38 912.25,-191.38 912.25,-230.88"/>
<text text-anchor="middle" x="865.25" y="-213.57" font-family="Helvetica,sans-Serif" font-size="14.00">samples = 1</text>
<text text-anchor="middle" x="865.25" y="-197.82" font-family="Helvetica,sans-Serif" font-size="14.00">value = [1, 0]</text>
</g>
<!-- 15&#45;&gt;19 -->
<g id="edge19" class="edge">
<title>15&#45;&gt;19</title>
<path fill="none" stroke="black" d="M810.01,-382.36C821.93,-345.64 843.16,-280.19 855.55,-242.03"/>
<polygon fill="black" stroke="black" points="858.86,-243.16 858.62,-232.57 852.2,-241 858.86,-243.16"/>
</g>
<!-- 17 -->
<g id="node18" class="node">
<title>17</title>
<polygon fill="#6cb6ec" stroke="black" points="812.75,-39.5 703.75,-39.5 703.75,0 812.75,0 812.75,-39.5"/>
<text text-anchor="middle" x="758.25" y="-22.2" font-family="Helvetica,sans-Serif" font-size="14.00">samples = 73</text>
<text text-anchor="middle" x="758.25" y="-6.45" font-family="Helvetica,sans-Serif" font-size="14.00">value = [15, 58]</text>
</g>
<!-- 16&#45;&gt;17 -->
<g id="edge17" class="edge">
<title>16&#45;&gt;17</title>
<path fill="none" stroke="black" d="M741.07,-183.39C744.75,-148.59 751.16,-87.88 755.02,-51.29"/>
<polygon fill="black" stroke="black" points="758.5,-51.7 756.07,-41.39 751.54,-50.96 758.5,-51.7"/>
</g>
<!-- 18 -->
<g id="node19" class="node">
<title>18</title>
<polygon fill="#e58139" stroke="black" points="914.25,-39.5 820.25,-39.5 820.25,0 914.25,0 914.25,-39.5"/>
<text text-anchor="middle" x="867.25" y="-22.2" font-family="Helvetica,sans-Serif" font-size="14.00">samples = 1</text>
<text text-anchor="middle" x="867.25" y="-6.45" font-family="Helvetica,sans-Serif" font-size="14.00">value = [1, 0]</text>
</g>
<!-- 16&#45;&gt;18 -->
<g id="edge18" class="edge">
<title>16&#45;&gt;18</title>
<path fill="none" stroke="black" d="M756.46,-183.39C780.69,-147.83 823.33,-85.23 848.05,-48.94"/>
<polygon fill="black" stroke="black" points="850.63,-51.37 853.37,-41.13 844.84,-47.43 850.63,-51.37"/>
</g>
<!-- 21 -->
<g id="node22" class="node">
<title>21</title>
<polygon fill="#bbddf6" stroke="black" points="1151.25,-238.75 919.25,-238.75 919.25,-183.5 1151.25,-183.5 1151.25,-238.75"/>
<text text-anchor="middle" x="1035.25" y="-221.45" font-family="Helvetica,sans-Serif" font-size="14.00">RiskOfViolence_DecileScore &lt;= 8.5</text>
<text text-anchor="middle" x="1035.25" y="-205.7" font-family="Helvetica,sans-Serif" font-size="14.00">samples = 338</text>
<text text-anchor="middle" x="1035.25" y="-189.95" font-family="Helvetica,sans-Serif" font-size="14.00">value = [134, 204]</text>
</g>
<!-- 20&#45;&gt;21 -->
<g id="edge21" class="edge">
<title>20&#45;&gt;21</title>
<path fill="none" stroke="black" d="M1035.25,-382.36C1035.25,-348.23 1035.25,-289.26 1035.25,-250.47"/>
<polygon fill="black" stroke="black" points="1038.75,-250.64 1035.25,-240.64 1031.75,-250.64 1038.75,-250.64"/>
</g>
<!-- 24 -->
<g id="node25" class="node">
<title>24</title>
<polygon fill="#e58139" stroke="black" points="1252.25,-230.88 1158.25,-230.88 1158.25,-191.38 1252.25,-191.38 1252.25,-230.88"/>
<text text-anchor="middle" x="1205.25" y="-213.57" font-family="Helvetica,sans-Serif" font-size="14.00">samples = 7</text>
<text text-anchor="middle" x="1205.25" y="-197.82" font-family="Helvetica,sans-Serif" font-size="14.00">value = [7, 0]</text>
</g>
<!-- 20&#45;&gt;24 -->
<g id="edge24" class="edge">
<title>20&#45;&gt;24</title>
<path fill="none" stroke="black" d="M1058.53,-382.36C1090.86,-344.85 1149.03,-277.36 1181.57,-239.6"/>
<polygon fill="black" stroke="black" points="1184.01,-242.13 1187.88,-232.27 1178.7,-237.56 1184.01,-242.13"/>
</g>
<!-- 22 -->
<g id="node23" class="node">
<title>22</title>
<polygon fill="#d0e8f9" stroke="black" points="1071.25,-39.5 947.25,-39.5 947.25,0 1071.25,0 1071.25,-39.5"/>
<text text-anchor="middle" x="1009.25" y="-22.2" font-family="Helvetica,sans-Serif" font-size="14.00">samples = 240</text>
<text text-anchor="middle" x="1009.25" y="-6.45" font-family="Helvetica,sans-Serif" font-size="14.00">value = [104, 136]</text>
</g>
<!-- 21&#45;&gt;22 -->
<g id="edge22" class="edge">
<title>21&#45;&gt;22</title>
<path fill="none" stroke="black" d="M1031.58,-183.39C1026.78,-148.43 1018.39,-87.35 1013.38,-50.82"/>
<polygon fill="black" stroke="black" points="1016.91,-50.81 1012.08,-41.38 1009.98,-51.76 1016.91,-50.81"/>
</g>
<!-- 23 -->
<g id="node24" class="node">
<title>23</title>
<polygon fill="#90c8f0" stroke="black" points="1187.75,-39.5 1078.75,-39.5 1078.75,0 1187.75,0 1187.75,-39.5"/>
<text text-anchor="middle" x="1133.25" y="-22.2" font-family="Helvetica,sans-Serif" font-size="14.00">samples = 98</text>
<text text-anchor="middle" x="1133.25" y="-6.45" font-family="Helvetica,sans-Serif" font-size="14.00">value = [30, 68]</text>
</g>
<!-- 21&#45;&gt;23 -->
<g id="edge23" class="edge">
<title>21&#45;&gt;23</title>
<path fill="none" stroke="black" d="M1049.08,-183.39C1067.33,-148.13 1099.33,-86.29 1118.18,-49.87"/>
<polygon fill="black" stroke="black" points="1121.17,-51.72 1122.65,-41.23 1114.95,-48.5 1121.17,-51.72"/>
</g>
</g>
</svg>
