<?xml version="1.0" encoding="UTF-8" standalone="no"?>
<!DOCTYPE svg PUBLIC "-//W3C//DTD SVG 1.1//EN"
 "http://www.w3.org/Graphics/SVG/1.1/DTD/svg11.dtd">
<!-- Generated by graphviz version 12.2.1 (20241206.2353)
 -->
<!-- Title: Tree Pages: 1 -->
<svg width="576pt" height="327pt"
 viewBox="0.00 0.00 576.00 327.10" xmlns="http://www.w3.org/2000/svg" xmlns:xlink="http://www.w3.org/1999/xlink">
<g id="graph0" class="graph" transform="scale(0.469294 0.469294) rotate(0) translate(4 693)">
<title>Tree</title>
<polygon fill="white" stroke="none" points="-4,4 -4,-693 1223.38,-693 1223.38,4 -4,4"/>
<!-- 0 -->
<g id="node1" class="node">
<title>0</title>
<polygon fill="#ffffff" stroke="black" points="742.25,-689 510.25,-689 510.25,-633.75 742.25,-633.75 742.25,-689"/>
<text text-anchor="middle" x="626.25" y="-671.7" font-family="Helvetica,sans-Serif" font-size="14.00">RiskOfViolence_DecileScore &lt;= 5.5</text>
<text text-anchor="middle" x="626.25" y="-655.95" font-family="Helvetica,sans-Serif" font-size="14.00">samples = 1100</text>
<text text-anchor="middle" x="626.25" y="-640.2" font-family="Helvetica,sans-Serif" font-size="14.00">value = [550, 550]</text>
</g>
<!-- 1 -->
<g id="node2" class="node">
<title>1</title>
<polygon fill="#f8deca" stroke="black" points="551.5,-525.75 405,-525.75 405,-470.5 551.5,-470.5 551.5,-525.75"/>
<text text-anchor="middle" x="478.25" y="-508.45" font-family="Helvetica,sans-Serif" font-size="14.00">priors_count &lt;= 0.5</text>
<text text-anchor="middle" x="478.25" y="-492.7" font-family="Helvetica,sans-Serif" font-size="14.00">samples = 680</text>
<text text-anchor="middle" x="478.25" y="-476.95" font-family="Helvetica,sans-Serif" font-size="14.00">value = [392.0, 288.0]</text>
</g>
<!-- 0&#45;&gt;1 -->
<g id="edge1" class="edge">
<title>0&#45;&gt;1</title>
<path fill="none" stroke="black" d="M601.48,-633.39C576.61,-606.29 538.18,-564.42 510.85,-534.64"/>
<polygon fill="black" stroke="black" points="513.47,-532.32 504.13,-527.32 508.31,-537.05 513.47,-532.32"/>
<text text-anchor="middle" x="502.03" y="-545.75" font-family="Helvetica,sans-Serif" font-size="14.00">True</text>
</g>
<!-- 14 -->
<g id="node15" class="node">
<title>14</title>
<polygon fill="#b0d8f5" stroke="black" points="865.12,-525.75 701.38,-525.75 701.38,-470.5 865.12,-470.5 865.12,-525.75"/>
<text text-anchor="middle" x="783.25" y="-508.45" font-family="Helvetica,sans-Serif" font-size="14.00">c_charge_degree &lt;= 1.5</text>
<text text-anchor="middle" x="783.25" y="-492.7" font-family="Helvetica,sans-Serif" font-size="14.00">samples = 420</text>
<text text-anchor="middle" x="783.25" y="-476.95" font-family="Helvetica,sans-Serif" font-size="14.00">value = [158, 262]</text>
</g>
<!-- 0&#45;&gt;14 -->
<g id="edge14" class="edge">
<title>0&#45;&gt;14</title>
<path fill="none" stroke="black" d="M652.53,-633.39C679.02,-606.18 720.03,-564.06 749.04,-534.26"/>
<polygon fill="black" stroke="black" points="751.36,-536.89 755.83,-527.29 746.35,-532.01 751.36,-536.89"/>
<text text-anchor="middle" x="757.22" y="-545.78" font-family="Helvetica,sans-Serif" font-size="14.00">False</text>
</g>
<!-- 2 -->
<g id="node3" class="node">
<title>2</title>
<polygon fill="#f0b890" stroke="black" points="304.88,-362.5 25.62,-362.5 25.62,-307.25 304.88,-307.25 304.88,-362.5"/>
<text text-anchor="middle" x="165.25" y="-345.2" font-family="Helvetica,sans-Serif" font-size="14.00">RiskOfFailureToAppear_DecileScore &lt;= 8.5</text>
<text text-anchor="middle" x="165.25" y="-329.45" font-family="Helvetica,sans-Serif" font-size="14.00">samples = 210</text>
<text text-anchor="middle" x="165.25" y="-313.7" font-family="Helvetica,sans-Serif" font-size="14.00">value = [146, 64]</text>
</g>
<!-- 1&#45;&gt;2 -->
<g id="edge2" class="edge">
<title>1&#45;&gt;2</title>
<path fill="none" stroke="black" d="M425.86,-470.14C371.36,-442.06 286.02,-398.09 227.96,-368.18"/>
<polygon fill="black" stroke="black" points="229.65,-365.11 219.16,-363.65 226.44,-371.34 229.65,-365.11"/>
</g>
<!-- 7 -->
<g id="node8" class="node">
<title>7</title>
<polygon fill="#fdf4ed" stroke="black" points="594.25,-362.5 362.25,-362.5 362.25,-307.25 594.25,-307.25 594.25,-362.5"/>
<text text-anchor="middle" x="478.25" y="-345.2" font-family="Helvetica,sans-Serif" font-size="14.00">RiskOfViolence_DecileScore &lt;= 1.5</text>
<text text-anchor="middle" x="478.25" y="-329.45" font-family="Helvetica,sans-Serif" font-size="14.00">samples = 470</text>
<text text-anchor="middle" x="478.25" y="-313.7" font-family="Helvetica,sans-Serif" font-size="14.00">value = [246, 224]</text>
</g>
<!-- 1&#45;&gt;7 -->
<g id="edge7" class="edge">
<title>1&#45;&gt;7</title>
<path fill="none" stroke="black" d="M478.25,-470.14C478.25,-443.86 478.25,-403.67 478.25,-374.11"/>
<polygon fill="black" stroke="black" points="481.75,-374.47 478.25,-364.47 474.75,-374.47 481.75,-374.47"/>
</g>
<!-- 3 -->
<g id="node4" class="node">
<title>3</title>
<polygon fill="#f0b78d" stroke="black" points="116.5,-199.25 0,-199.25 0,-144 116.5,-144 116.5,-199.25"/>
<text text-anchor="middle" x="58.25" y="-181.95" font-family="Helvetica,sans-Serif" font-size="14.00">age &lt;= 39.5</text>
<text text-anchor="middle" x="58.25" y="-166.2" font-family="Helvetica,sans-Serif" font-size="14.00">samples = 208</text>
<text text-anchor="middle" x="58.25" y="-150.45" font-family="Helvetica,sans-Serif" font-size="14.00">value = [146, 62]</text>
</g>
<!-- 2&#45;&gt;3 -->
<g id="edge3" class="edge">
<title>2&#45;&gt;3</title>
<path fill="none" stroke="black" d="M147.34,-306.89C129.52,-280.03 102.05,-238.63 82.33,-208.91"/>
<polygon fill="black" stroke="black" points="85.5,-207.36 77.05,-200.96 79.67,-211.23 85.5,-207.36"/>
</g>
<!-- 6 -->
<g id="node7" class="node">
<title>6</title>
<polygon fill="#399de5" stroke="black" points="210.38,-189.62 120.12,-189.62 120.12,-153.62 210.38,-153.62 210.38,-189.62"/>
<text text-anchor="middle" x="165.25" y="-166.2" font-family="Helvetica,sans-Serif" font-size="14.00">samples = 2</text>
</g>
<!-- 2&#45;&gt;6 -->
<g id="edge6" class="edge">
<title>2&#45;&gt;6</title>
<path fill="none" stroke="black" d="M165.25,-306.89C165.25,-277.57 165.25,-230.95 165.25,-201.07"/>
<polygon fill="black" stroke="black" points="168.75,-201.28 165.25,-191.28 161.75,-201.28 168.75,-201.28"/>
</g>
<!-- 4 -->
<g id="node5" class="node">
<title>4</title>
<polygon fill="#f1bd98" stroke="black" points="108.88,-36 3.62,-36 3.62,0 108.88,0 108.88,-36"/>
<text text-anchor="middle" x="56.25" y="-12.57" font-family="Helvetica,sans-Serif" font-size="14.00">samples = 179</text>
</g>
<!-- 3&#45;&gt;4 -->
<g id="edge4" class="edge">
<title>3&#45;&gt;4</title>
<path fill="none" stroke="black" d="M57.89,-143.52C57.54,-116.51 56.99,-75.2 56.63,-47.66"/>
<polygon fill="black" stroke="black" points="60.13,-47.89 56.5,-37.94 53.13,-47.98 60.13,-47.89"/>
</g>
<!-- 5 -->
<g id="node6" class="node">
<title>5</title>
<polygon fill="#e99559" stroke="black" points="211.12,-36 113.38,-36 113.38,0 211.12,0 211.12,-36"/>
<text text-anchor="middle" x="162.25" y="-12.57" font-family="Helvetica,sans-Serif" font-size="14.00">samples = 29</text>
</g>
<!-- 3&#45;&gt;5 -->
<g id="edge5" class="edge">
<title>3&#45;&gt;5</title>
<path fill="none" stroke="black" d="M76.84,-143.52C95.78,-115.9 124.98,-73.34 143.85,-45.83"/>
<polygon fill="black" stroke="black" points="146.67,-47.9 149.44,-37.67 140.9,-43.94 146.67,-47.9"/>
</g>
<!-- 8 -->
<g id="node9" class="node">
<title>8</title>
<polygon fill="#eead7e" stroke="black" points="493.88,-199.25 214.62,-199.25 214.62,-144 493.88,-144 493.88,-199.25"/>
<text text-anchor="middle" x="354.25" y="-181.95" font-family="Helvetica,sans-Serif" font-size="14.00">RiskOfFailureToAppear_DecileScore &lt;= 1.5</text>
<text text-anchor="middle" x="354.25" y="-166.2" font-family="Helvetica,sans-Serif" font-size="14.00">samples = 81</text>
<text text-anchor="middle" x="354.25" y="-150.45" font-family="Helvetica,sans-Serif" font-size="14.00">value = [60, 21]</text>
</g>
<!-- 7&#45;&gt;8 -->
<g id="edge8" class="edge">
<title>7&#45;&gt;8</title>
<path fill="none" stroke="black" d="M457.5,-306.89C436.75,-279.91 404.73,-238.27 381.86,-208.52"/>
<polygon fill="black" stroke="black" points="384.87,-206.7 376,-200.9 379.32,-210.96 384.87,-206.7"/>
</g>
<!-- 11 -->
<g id="node12" class="node">
<title>11</title>
<polygon fill="#eef7fd" stroke="black" points="644.5,-199.25 498,-199.25 498,-144 644.5,-144 644.5,-199.25"/>
<text text-anchor="middle" x="571.25" y="-181.95" font-family="Helvetica,sans-Serif" font-size="14.00">jail_duration &lt;= 37.5</text>
<text text-anchor="middle" x="571.25" y="-166.2" font-family="Helvetica,sans-Serif" font-size="14.00">samples = 389</text>
<text text-anchor="middle" x="571.25" y="-150.45" font-family="Helvetica,sans-Serif" font-size="14.00">value = [186.0, 203.0]</text>
</g>
<!-- 7&#45;&gt;11 -->
<g id="edge11" class="edge">
<title>7&#45;&gt;11</title>
<path fill="none" stroke="black" d="M493.82,-306.89C509.24,-280.14 532.97,-238.99 550.1,-209.3"/>
<polygon fill="black" stroke="black" points="552.91,-211.42 554.88,-201.01 546.85,-207.93 552.91,-211.42"/>
</g>
<!-- 9 -->
<g id="node10" class="node">
<title>9</title>
<polygon fill="#f7d9c4" stroke="black" points="327.12,-36 229.38,-36 229.38,0 327.12,0 327.12,-36"/>
<text text-anchor="middle" x="278.25" y="-12.57" font-family="Helvetica,sans-Serif" font-size="14.00">samples = 34</text>
</g>
<!-- 8&#45;&gt;9 -->
<g id="edge9" class="edge">
<title>8&#45;&gt;9</title>
<path fill="none" stroke="black" d="M340.66,-143.52C326.94,-116.15 305.86,-74.08 292.06,-46.55"/>
<polygon fill="black" stroke="black" points="295.27,-45.15 287.66,-37.78 289.01,-48.29 295.27,-45.15"/>
</g>
<!-- 10 -->
<g id="node11" class="node">
<title>10</title>
<polygon fill="#ea975c" stroke="black" points="429.12,-36 331.38,-36 331.38,0 429.12,0 429.12,-36"/>
<text text-anchor="middle" x="380.25" y="-12.57" font-family="Helvetica,sans-Serif" font-size="14.00">samples = 47</text>
</g>
<!-- 8&#45;&gt;10 -->
<g id="edge10" class="edge">
<title>8&#45;&gt;10</title>
<path fill="none" stroke="black" d="M358.9,-143.52C363.53,-116.51 370.61,-75.2 375.34,-47.66"/>
<polygon fill="black" stroke="black" points="378.77,-48.37 377.01,-37.92 371.87,-47.18 378.77,-48.37"/>
</g>
<!-- 12 -->
<g id="node13" class="node">
<title>12</title>
<polygon fill="#daedfa" stroke="black" points="549.88,-36 444.62,-36 444.62,0 549.88,0 549.88,-36"/>
<text text-anchor="middle" x="497.25" y="-12.57" font-family="Helvetica,sans-Serif" font-size="14.00">samples = 319</text>
</g>
<!-- 11&#45;&gt;12 -->
<g id="edge12" class="edge">
<title>11&#45;&gt;12</title>
<path fill="none" stroke="black" d="M558.02,-143.52C544.66,-116.15 524.13,-74.08 510.7,-46.55"/>
<polygon fill="black" stroke="black" points="513.95,-45.24 506.42,-37.79 507.66,-48.31 513.95,-45.24"/>
</g>
<!-- 13 -->
<g id="node14" class="node">
<title>13</title>
<polygon fill="#f5d0b5" stroke="black" points="652.12,-36 554.38,-36 554.38,0 652.12,0 652.12,-36"/>
<text text-anchor="middle" x="603.25" y="-12.57" font-family="Helvetica,sans-Serif" font-size="14.00">samples = 70</text>
</g>
<!-- 11&#45;&gt;13 -->
<g id="edge13" class="edge">
<title>11&#45;&gt;13</title>
<path fill="none" stroke="black" d="M576.97,-143.52C582.67,-116.51 591.39,-75.2 597.2,-47.66"/>
<polygon fill="black" stroke="black" points="600.62,-48.41 599.26,-37.91 593.77,-46.97 600.62,-48.41"/>
</g>
<!-- 15 -->
<g id="node16" class="node">
<title>15</title>
<polygon fill="#73baed" stroke="black" points="853.5,-362.5 713,-362.5 713,-307.25 853.5,-307.25 853.5,-362.5"/>
<text text-anchor="middle" x="783.25" y="-345.2" font-family="Helvetica,sans-Serif" font-size="14.00">priors_count &lt;= 28.0</text>
<text text-anchor="middle" x="783.25" y="-329.45" font-family="Helvetica,sans-Serif" font-size="14.00">samples = 75</text>
<text text-anchor="middle" x="783.25" y="-313.7" font-family="Helvetica,sans-Serif" font-size="14.00">value = [17, 58]</text>
</g>
<!-- 14&#45;&gt;15 -->
<g id="edge15" class="edge">
<title>14&#45;&gt;15</title>
<path fill="none" stroke="black" d="M783.25,-470.14C783.25,-443.86 783.25,-403.67 783.25,-374.11"/>
<polygon fill="black" stroke="black" points="786.75,-374.47 783.25,-364.47 779.75,-374.47 786.75,-374.47"/>
</g>
<!-- 20 -->
<g id="node21" class="node">
<title>20</title>
<polygon fill="#c2e1f7" stroke="black" points="1071.25,-362.5 947.25,-362.5 947.25,-307.25 1071.25,-307.25 1071.25,-362.5"/>
<text text-anchor="middle" x="1009.25" y="-345.2" font-family="Helvetica,sans-Serif" font-size="14.00">age &lt;= 41.5</text>
<text text-anchor="middle" x="1009.25" y="-329.45" font-family="Helvetica,sans-Serif" font-size="14.00">samples = 345</text>
<text text-anchor="middle" x="1009.25" y="-313.7" font-family="Helvetica,sans-Serif" font-size="14.00">value = [141, 204]</text>
</g>
<!-- 14&#45;&gt;20 -->
<g id="edge20" class="edge">
<title>14&#45;&gt;20</title>
<path fill="none" stroke="black" d="M821.08,-470.14C859.86,-442.46 920.27,-399.36 962.14,-369.49"/>
<polygon fill="black" stroke="black" points="963.96,-372.49 970.07,-363.83 959.89,-366.79 963.96,-372.49"/>
</g>
<!-- 16 -->
<g id="node17" class="node">
<title>16</title>
<polygon fill="#70b8ec" stroke="black" points="795.5,-199.25 649,-199.25 649,-144 795.5,-144 795.5,-199.25"/>
<text text-anchor="middle" x="722.25" y="-181.95" font-family="Helvetica,sans-Serif" font-size="14.00">jail_duration &lt;= 512.5</text>
<text text-anchor="middle" x="722.25" y="-166.2" font-family="Helvetica,sans-Serif" font-size="14.00">samples = 74</text>
<text text-anchor="middle" x="722.25" y="-150.45" font-family="Helvetica,sans-Serif" font-size="14.00">value = [16, 58]</text>
</g>
<!-- 15&#45;&gt;16 -->
<g id="edge16" class="edge">
<title>15&#45;&gt;16</title>
<path fill="none" stroke="black" d="M773.04,-306.89C763.06,-280.49 747.76,-240.06 736.56,-210.46"/>
<polygon fill="black" stroke="black" points="739.84,-209.23 733.03,-201.12 733.29,-211.71 739.84,-209.23"/>
</g>
<!-- 19 -->
<g id="node20" class="node">
<title>19</title>
<polygon fill="#e58139" stroke="black" points="889.38,-189.62 799.12,-189.62 799.12,-153.62 889.38,-153.62 889.38,-189.62"/>
<text text-anchor="middle" x="844.25" y="-166.2" font-family="Helvetica,sans-Serif" font-size="14.00">samples = 1</text>
</g>
<!-- 15&#45;&gt;19 -->
<g id="edge19" class="edge">
<title>15&#45;&gt;19</title>
<path fill="none" stroke="black" d="M793.46,-306.89C804.65,-277.31 822.5,-230.12 833.79,-200.28"/>
<polygon fill="black" stroke="black" points="836.96,-201.78 837.23,-191.19 830.42,-199.3 836.96,-201.78"/>
</g>
<!-- 17 -->
<g id="node18" class="node">
<title>17</title>
<polygon fill="#6cb6ec" stroke="black" points="760.12,-36 662.38,-36 662.38,0 760.12,0 760.12,-36"/>
<text text-anchor="middle" x="711.25" y="-12.57" font-family="Helvetica,sans-Serif" font-size="14.00">samples = 73</text>
</g>
<!-- 16&#45;&gt;17 -->
<g id="edge17" class="edge">
<title>16&#45;&gt;17</title>
<path fill="none" stroke="black" d="M720.28,-143.52C718.32,-116.51 715.33,-75.2 713.33,-47.66"/>
<polygon fill="black" stroke="black" points="716.84,-47.66 712.62,-37.94 709.86,-48.16 716.84,-47.66"/>
</g>
<!-- 18 -->
<g id="node19" class="node">
<title>18</title>
<polygon fill="#e58139" stroke="black" points="854.38,-36 764.12,-36 764.12,0 854.38,0 854.38,-36"/>
<text text-anchor="middle" x="809.25" y="-12.57" font-family="Helvetica,sans-Serif" font-size="14.00">samples = 1</text>
</g>
<!-- 16&#45;&gt;18 -->
<g id="edge18" class="edge">
<title>16&#45;&gt;18</title>
<path fill="none" stroke="black" d="M737.8,-143.52C753.58,-116.02 777.86,-73.71 793.65,-46.19"/>
<polygon fill="black" stroke="black" points="796.56,-48.15 798.5,-37.74 790.49,-44.67 796.56,-48.15"/>
</g>
<!-- 21 -->
<g id="node22" class="node">
<title>21</title>
<polygon fill="#bbddf6" stroke="black" points="1125.25,-199.25 893.25,-199.25 893.25,-144 1125.25,-144 1125.25,-199.25"/>
<text text-anchor="middle" x="1009.25" y="-181.95" font-family="Helvetica,sans-Serif" font-size="14.00">RiskOfViolence_DecileScore &lt;= 8.5</text>
<text text-anchor="middle" x="1009.25" y="-166.2" font-family="Helvetica,sans-Serif" font-size="14.00">samples = 338</text>
<text text-anchor="middle" x="1009.25" y="-150.45" font-family="Helvetica,sans-Serif" font-size="14.00">value = [134, 204]</text>
</g>
<!-- 20&#45;&gt;21 -->
<g id="edge21" class="edge">
<title>20&#45;&gt;21</title>
<path fill="none" stroke="black" d="M1009.25,-306.89C1009.25,-280.61 1009.25,-240.42 1009.25,-210.86"/>
<polygon fill="black" stroke="black" points="1012.75,-211.22 1009.25,-201.22 1005.75,-211.22 1012.75,-211.22"/>
</g>
<!-- 24 -->
<g id="node25" class="node">
<title>24</title>
<polygon fill="#e58139" stroke="black" points="1219.38,-189.62 1129.12,-189.62 1129.12,-153.62 1219.38,-153.62 1219.38,-189.62"/>
<text text-anchor="middle" x="1174.25" y="-166.2" font-family="Helvetica,sans-Serif" font-size="14.00">samples = 7</text>
</g>
<!-- 20&#45;&gt;24 -->
<g id="edge24" class="edge">
<title>20&#45;&gt;24</title>
<path fill="none" stroke="black" d="M1036.87,-306.89C1068.06,-276.4 1118.42,-227.19 1148.72,-197.57"/>
<polygon fill="black" stroke="black" points="1150.92,-200.32 1155.62,-190.83 1146.03,-195.31 1150.92,-200.32"/>
</g>
<!-- 22 -->
<g id="node23" class="node">
<title>22</title>
<polygon fill="#d0e8f9" stroke="black" points="966.88,-36 861.62,-36 861.62,0 966.88,0 966.88,-36"/>
<text text-anchor="middle" x="914.25" y="-12.57" font-family="Helvetica,sans-Serif" font-size="14.00">samples = 240</text>
</g>
<!-- 21&#45;&gt;22 -->
<g id="edge22" class="edge">
<title>21&#45;&gt;22</title>
<path fill="none" stroke="black" d="M992.27,-143.52C974.96,-115.9 948.29,-73.34 931.06,-45.83"/>
<polygon fill="black" stroke="black" points="934.25,-44.32 925.97,-37.71 928.32,-48.04 934.25,-44.32"/>
</g>
<!-- 23 -->
<g id="node24" class="node">
<title>23</title>
<polygon fill="#90c8f0" stroke="black" points="1069.12,-36 971.38,-36 971.38,0 1069.12,0 1069.12,-36"/>
<text text-anchor="middle" x="1020.25" y="-12.57" font-family="Helvetica,sans-Serif" font-size="14.00">samples = 98</text>
</g>
<!-- 21&#45;&gt;23 -->
<g id="edge23" class="edge">
<title>21&#45;&gt;23</title>
<path fill="none" stroke="black" d="M1011.22,-143.52C1013.18,-116.51 1016.17,-75.2 1018.17,-47.66"/>
<polygon fill="black" stroke="black" points="1021.64,-48.16 1018.88,-37.94 1014.66,-47.66 1021.64,-48.16"/>
</g>
</g>
</svg>
