<?xml version="1.0" encoding="UTF-8" standalone="no"?>
<!DOCTYPE svg PUBLIC "-//W3C//DTD SVG 1.1//EN"
 "http://www.w3.org/Graphics/SVG/1.1/DTD/svg11.dtd">
<!-- Generated by graphviz version 12.2.1 (20241206.2353)
 -->
<!-- Title: Tree Pages: 1 -->
<svg width="576pt" height="241pt"
 viewBox="0.00 0.00 576.00 241.20" xmlns="http://www.w3.org/2000/svg" xmlns:xlink="http://www.w3.org/1999/xlink">
<g id="graph0" class="graph" transform="scale(0.34605 0.34605) rotate(0) translate(4 693)">
<title>Tree</title>
<polygon fill="white" stroke="none" points="-4,4 -4,-693 1660.5,-693 1660.5,4 -4,4"/>
<!-- 0 -->
<g id="node1" class="node">
<title>0</title>
<polygon fill="#ffffff" stroke="black" points="917.62,-689 685.62,-689 685.62,-633.75 917.62,-633.75 917.62,-689"/>
<text text-anchor="middle" x="801.62" y="-671.7" font-family="Helvetica,sans-Serif" font-size="14.00">RiskOfViolence_DecileScore &lt;= 5.5</text>
<text text-anchor="middle" x="801.62" y="-655.95" font-family="Helvetica,sans-Serif" font-size="14.00">samples = 1306</text>
<text text-anchor="middle" x="801.62" y="-640.2" font-family="Helvetica,sans-Serif" font-size="14.00">value = [653, 653]</text>
</g>
<!-- 1 -->
<g id="node2" class="node">
<title>1</title>
<polygon fill="#f7d6bf" stroke="black" points="699.88,-525.75 553.38,-525.75 553.38,-470.5 699.88,-470.5 699.88,-525.75"/>
<text text-anchor="middle" x="626.62" y="-508.45" font-family="Helvetica,sans-Serif" font-size="14.00">priors_count &lt;= 3.5</text>
<text text-anchor="middle" x="626.62" y="-492.7" font-family="Helvetica,sans-Serif" font-size="14.00">samples = 804</text>
<text text-anchor="middle" x="626.62" y="-476.95" font-family="Helvetica,sans-Serif" font-size="14.00">value = [480.0, 324.0]</text>
</g>
<!-- 0&#45;&gt;1 -->
<g id="edge1" class="edge">
<title>0&#45;&gt;1</title>
<path fill="none" stroke="black" d="M772.33,-633.39C742.68,-606.06 696.7,-563.7 664.34,-533.88"/>
<polygon fill="black" stroke="black" points="666.85,-531.43 657.12,-527.23 662.11,-536.58 666.85,-531.43"/>
<text text-anchor="middle" x="657.03" y="-545.76" font-family="Helvetica,sans-Serif" font-size="14.00">True</text>
</g>
<!-- 16 -->
<g id="node17" class="node">
<title>16</title>
<polygon fill="#a1d1f3" stroke="black" points="1072.12,-525.75 939.12,-525.75 939.12,-470.5 1072.12,-470.5 1072.12,-525.75"/>
<text text-anchor="middle" x="1005.62" y="-508.45" font-family="Helvetica,sans-Serif" font-size="14.00">priors_count &lt;= 2.5</text>
<text text-anchor="middle" x="1005.62" y="-492.7" font-family="Helvetica,sans-Serif" font-size="14.00">samples = 502</text>
<text text-anchor="middle" x="1005.62" y="-476.95" font-family="Helvetica,sans-Serif" font-size="14.00">value = [173, 329]</text>
</g>
<!-- 0&#45;&gt;16 -->
<g id="edge16" class="edge">
<title>0&#45;&gt;16</title>
<path fill="none" stroke="black" d="M835.77,-633.39C870.63,-605.83 924.85,-562.97 962.62,-533.12"/>
<polygon fill="black" stroke="black" points="964.51,-536.09 970.18,-527.14 960.17,-530.6 964.51,-536.09"/>
<text text-anchor="middle" x="968.46" y="-545.61" font-family="Helvetica,sans-Serif" font-size="14.00">False</text>
</g>
<!-- 2 -->
<g id="node3" class="node">
<title>2</title>
<polygon fill="#f2c19e" stroke="black" points="421.88,-362.5 275.38,-362.5 275.38,-307.25 421.88,-307.25 421.88,-362.5"/>
<text text-anchor="middle" x="348.62" y="-345.2" font-family="Helvetica,sans-Serif" font-size="14.00">jail_duration &lt;= 1.5</text>
<text text-anchor="middle" x="348.62" y="-329.45" font-family="Helvetica,sans-Serif" font-size="14.00">samples = 552</text>
<text text-anchor="middle" x="348.62" y="-313.7" font-family="Helvetica,sans-Serif" font-size="14.00">value = [366.0, 186.0]</text>
</g>
<!-- 1&#45;&gt;2 -->
<g id="edge2" class="edge">
<title>1&#45;&gt;2</title>
<path fill="none" stroke="black" d="M580.09,-470.14C531.88,-442.17 456.51,-398.45 404.96,-368.55"/>
<polygon fill="black" stroke="black" points="407.02,-365.7 396.62,-363.71 403.51,-371.76 407.02,-365.7"/>
</g>
<!-- 9 -->
<g id="node10" class="node">
<title>9</title>
<polygon fill="#ddeefa" stroke="black" points="701,-362.5 552.25,-362.5 552.25,-307.25 701,-307.25 701,-362.5"/>
<text text-anchor="middle" x="626.62" y="-345.2" font-family="Helvetica,sans-Serif" font-size="14.00">v_decile_score &lt;= 2.5</text>
<text text-anchor="middle" x="626.62" y="-329.45" font-family="Helvetica,sans-Serif" font-size="14.00">samples = 252</text>
<text text-anchor="middle" x="626.62" y="-313.7" font-family="Helvetica,sans-Serif" font-size="14.00">value = [114, 138]</text>
</g>
<!-- 1&#45;&gt;9 -->
<g id="edge9" class="edge">
<title>1&#45;&gt;9</title>
<path fill="none" stroke="black" d="M626.62,-470.14C626.62,-443.86 626.62,-403.67 626.62,-374.11"/>
<polygon fill="black" stroke="black" points="630.13,-374.47 626.63,-364.47 623.13,-374.47 630.13,-374.47"/>
</g>
<!-- 3 -->
<g id="node4" class="node">
<title>3</title>
<polygon fill="#f0b78e" stroke="black" points="243.5,-199.25 79.75,-199.25 79.75,-144 243.5,-144 243.5,-199.25"/>
<text text-anchor="middle" x="161.62" y="-181.95" font-family="Helvetica,sans-Serif" font-size="14.00">c_charge_degree &lt;= 1.5</text>
<text text-anchor="middle" x="161.62" y="-166.2" font-family="Helvetica,sans-Serif" font-size="14.00">samples = 370</text>
<text text-anchor="middle" x="161.62" y="-150.45" font-family="Helvetica,sans-Serif" font-size="14.00">value = [259, 111]</text>
</g>
<!-- 2&#45;&gt;3 -->
<g id="edge3" class="edge">
<title>2&#45;&gt;3</title>
<path fill="none" stroke="black" d="M317.33,-306.89C285.5,-279.44 236.09,-236.83 201.49,-207"/>
<polygon fill="black" stroke="black" points="204.03,-204.57 194.17,-200.69 199.46,-209.87 204.03,-204.57"/>
</g>
<!-- 6 -->
<g id="node7" class="node">
<title>6</title>
<polygon fill="#f7d9c4" stroke="black" points="425.25,-199.25 272,-199.25 272,-144 425.25,-144 425.25,-199.25"/>
<text text-anchor="middle" x="348.62" y="-181.95" font-family="Helvetica,sans-Serif" font-size="14.00">juv_misd_count &lt;= 0.5</text>
<text text-anchor="middle" x="348.62" y="-166.2" font-family="Helvetica,sans-Serif" font-size="14.00">samples = 182</text>
<text text-anchor="middle" x="348.62" y="-150.45" font-family="Helvetica,sans-Serif" font-size="14.00">value = [107, 75]</text>
</g>
<!-- 2&#45;&gt;6 -->
<g id="edge6" class="edge">
<title>2&#45;&gt;6</title>
<path fill="none" stroke="black" d="M348.62,-306.89C348.62,-280.61 348.62,-240.42 348.62,-210.86"/>
<polygon fill="black" stroke="black" points="352.13,-211.22 348.63,-201.22 345.13,-211.22 352.13,-211.22"/>
</g>
<!-- 4 -->
<g id="node5" class="node">
<title>4</title>
<polygon fill="#f5d0b6" stroke="black" points="105.25,-36 0,-36 0,0 105.25,0 105.25,-36"/>
<text text-anchor="middle" x="52.62" y="-12.57" font-family="Helvetica,sans-Serif" font-size="14.00">samples = 137</text>
</g>
<!-- 3&#45;&gt;4 -->
<g id="edge4" class="edge">
<title>3&#45;&gt;4</title>
<path fill="none" stroke="black" d="M142.14,-143.52C122.2,-115.78 91.42,-72.96 71.65,-45.46"/>
<polygon fill="black" stroke="black" points="74.71,-43.73 66.04,-37.65 69.03,-47.82 74.71,-43.73"/>
</g>
<!-- 5 -->
<g id="node6" class="node">
<title>5</title>
<polygon fill="#eeab7b" stroke="black" points="214.25,-36 109,-36 109,0 214.25,0 214.25,-36"/>
<text text-anchor="middle" x="161.62" y="-12.57" font-family="Helvetica,sans-Serif" font-size="14.00">samples = 233</text>
</g>
<!-- 3&#45;&gt;5 -->
<g id="edge5" class="edge">
<title>3&#45;&gt;5</title>
<path fill="none" stroke="black" d="M161.62,-143.52C161.62,-116.51 161.62,-75.2 161.62,-47.66"/>
<polygon fill="black" stroke="black" points="165.13,-47.94 161.63,-37.94 158.13,-47.94 165.13,-47.94"/>
</g>
<!-- 7 -->
<g id="node8" class="node">
<title>7</title>
<polygon fill="#f6d3bb" stroke="black" points="323.25,-36 218,-36 218,0 323.25,0 323.25,-36"/>
<text text-anchor="middle" x="270.62" y="-12.57" font-family="Helvetica,sans-Serif" font-size="14.00">samples = 177</text>
</g>
<!-- 6&#45;&gt;7 -->
<g id="edge7" class="edge">
<title>6&#45;&gt;7</title>
<path fill="none" stroke="black" d="M334.68,-143.52C320.6,-116.15 298.96,-74.08 284.8,-46.55"/>
<polygon fill="black" stroke="black" points="287.97,-45.06 280.28,-37.77 281.74,-48.27 287.97,-45.06"/>
</g>
<!-- 8 -->
<g id="node9" class="node">
<title>8</title>
<polygon fill="#399de5" stroke="black" points="417.75,-36 327.5,-36 327.5,0 417.75,0 417.75,-36"/>
<text text-anchor="middle" x="372.62" y="-12.57" font-family="Helvetica,sans-Serif" font-size="14.00">samples = 5</text>
</g>
<!-- 6&#45;&gt;8 -->
<g id="edge8" class="edge">
<title>6&#45;&gt;8</title>
<path fill="none" stroke="black" d="M352.92,-143.52C357.19,-116.51 363.73,-75.2 368.09,-47.66"/>
<polygon fill="black" stroke="black" points="371.52,-48.34 369.63,-37.92 364.61,-47.25 371.52,-48.34"/>
</g>
<!-- 10 -->
<g id="node11" class="node">
<title>10</title>
<polygon fill="#f6d4bb" stroke="black" points="621.12,-199.25 488.12,-199.25 488.12,-144 621.12,-144 621.12,-199.25"/>
<text text-anchor="middle" x="554.62" y="-181.95" font-family="Helvetica,sans-Serif" font-size="14.00">priors_count &lt;= 6.5</text>
<text text-anchor="middle" x="554.62" y="-166.2" font-family="Helvetica,sans-Serif" font-size="14.00">samples = 58</text>
<text text-anchor="middle" x="554.62" y="-150.45" font-family="Helvetica,sans-Serif" font-size="14.00">value = [35, 23]</text>
</g>
<!-- 9&#45;&gt;10 -->
<g id="edge10" class="edge">
<title>9&#45;&gt;10</title>
<path fill="none" stroke="black" d="M614.57,-306.89C602.74,-280.38 584.58,-239.71 571.35,-210.07"/>
<polygon fill="black" stroke="black" points="574.61,-208.79 567.33,-201.08 568.21,-211.64 574.61,-208.79"/>
</g>
<!-- 13 -->
<g id="node14" class="node">
<title>13</title>
<polygon fill="#c1e0f7" stroke="black" points="774,-199.25 625.25,-199.25 625.25,-144 774,-144 774,-199.25"/>
<text text-anchor="middle" x="699.62" y="-181.95" font-family="Helvetica,sans-Serif" font-size="14.00">v_decile_score &lt;= 4.5</text>
<text text-anchor="middle" x="699.62" y="-166.2" font-family="Helvetica,sans-Serif" font-size="14.00">samples = 194</text>
<text text-anchor="middle" x="699.62" y="-150.45" font-family="Helvetica,sans-Serif" font-size="14.00">value = [79, 115]</text>
</g>
<!-- 9&#45;&gt;13 -->
<g id="edge13" class="edge">
<title>9&#45;&gt;13</title>
<path fill="none" stroke="black" d="M638.84,-306.89C650.85,-280.38 669.26,-239.71 682.67,-210.07"/>
<polygon fill="black" stroke="black" points="685.81,-211.63 686.74,-201.08 679.43,-208.75 685.81,-211.63"/>
</g>
<!-- 11 -->
<g id="node12" class="node">
<title>11</title>
<polygon fill="#eeab7b" stroke="black" points="519.5,-36 421.75,-36 421.75,0 519.5,0 519.5,-36"/>
<text text-anchor="middle" x="470.62" y="-12.57" font-family="Helvetica,sans-Serif" font-size="14.00">samples = 40</text>
</g>
<!-- 10&#45;&gt;11 -->
<g id="edge11" class="edge">
<title>10&#45;&gt;11</title>
<path fill="none" stroke="black" d="M539.61,-143.52C524.38,-116.02 500.93,-73.71 485.69,-46.19"/>
<polygon fill="black" stroke="black" points="488.92,-44.8 481.01,-37.75 482.8,-48.19 488.92,-44.8"/>
</g>
<!-- 12 -->
<g id="node13" class="node">
<title>12</title>
<polygon fill="#85c3ef" stroke="black" points="621.5,-36 523.75,-36 523.75,0 621.5,0 621.5,-36"/>
<text text-anchor="middle" x="572.62" y="-12.57" font-family="Helvetica,sans-Serif" font-size="14.00">samples = 18</text>
</g>
<!-- 10&#45;&gt;12 -->
<g id="edge12" class="edge">
<title>10&#45;&gt;12</title>
<path fill="none" stroke="black" d="M557.84,-143.52C561.05,-116.51 565.95,-75.2 569.22,-47.66"/>
<polygon fill="black" stroke="black" points="572.67,-48.27 570.38,-37.93 565.72,-47.45 572.67,-48.27"/>
</g>
<!-- 14 -->
<g id="node15" class="node">
<title>14</title>
<polygon fill="#acd6f4" stroke="black" points="731.25,-36 626,-36 626,0 731.25,0 731.25,-36"/>
<text text-anchor="middle" x="678.62" y="-12.57" font-family="Helvetica,sans-Serif" font-size="14.00">samples = 144</text>
</g>
<!-- 13&#45;&gt;14 -->
<g id="edge14" class="edge">
<title>13&#45;&gt;14</title>
<path fill="none" stroke="black" d="M695.87,-143.52C692.13,-116.51 686.41,-75.2 682.59,-47.66"/>
<polygon fill="black" stroke="black" points="686.08,-47.35 681.25,-37.92 679.15,-48.31 686.08,-47.35"/>
</g>
<!-- 15 -->
<g id="node16" class="node">
<title>15</title>
<polygon fill="#fdf5f0" stroke="black" points="833.5,-36 735.75,-36 735.75,0 833.5,0 833.5,-36"/>
<text text-anchor="middle" x="784.62" y="-12.57" font-family="Helvetica,sans-Serif" font-size="14.00">samples = 50</text>
</g>
<!-- 13&#45;&gt;15 -->
<g id="edge15" class="edge">
<title>13&#45;&gt;15</title>
<path fill="none" stroke="black" d="M714.82,-143.52C730.23,-116.02 753.95,-73.71 769.38,-46.19"/>
<polygon fill="black" stroke="black" points="772.28,-48.18 774.12,-37.75 766.17,-44.76 772.28,-48.18"/>
</g>
<!-- 17 -->
<g id="node18" class="node">
<title>17</title>
<polygon fill="#cee6f8" stroke="black" points="1121.62,-362.5 889.62,-362.5 889.62,-307.25 1121.62,-307.25 1121.62,-362.5"/>
<text text-anchor="middle" x="1005.62" y="-345.2" font-family="Helvetica,sans-Serif" font-size="14.00">RiskOfViolence_DecileScore &lt;= 6.5</text>
<text text-anchor="middle" x="1005.62" y="-329.45" font-family="Helvetica,sans-Serif" font-size="14.00">samples = 231</text>
<text text-anchor="middle" x="1005.62" y="-313.7" font-family="Helvetica,sans-Serif" font-size="14.00">value = [99, 132]</text>
</g>
<!-- 16&#45;&gt;17 -->
<g id="edge17" class="edge">
<title>16&#45;&gt;17</title>
<path fill="none" stroke="black" d="M1005.62,-470.14C1005.62,-443.86 1005.62,-403.67 1005.62,-374.11"/>
<polygon fill="black" stroke="black" points="1009.13,-374.47 1005.63,-364.47 1002.13,-374.47 1009.13,-374.47"/>
</g>
<!-- 24 -->
<g id="node25" class="node">
<title>24</title>
<polygon fill="#83c2ef" stroke="black" points="1397.12,-362.5 1258.12,-362.5 1258.12,-307.25 1397.12,-307.25 1397.12,-362.5"/>
<text text-anchor="middle" x="1327.62" y="-345.2" font-family="Helvetica,sans-Serif" font-size="14.00">jail_duration &lt;= 61.0</text>
<text text-anchor="middle" x="1327.62" y="-329.45" font-family="Helvetica,sans-Serif" font-size="14.00">samples = 271</text>
<text text-anchor="middle" x="1327.62" y="-313.7" font-family="Helvetica,sans-Serif" font-size="14.00">value = [74, 197]</text>
</g>
<!-- 16&#45;&gt;24 -->
<g id="edge24" class="edge">
<title>16&#45;&gt;24</title>
<path fill="none" stroke="black" d="M1059.52,-470.14C1115.71,-442 1203.75,-397.91 1263.48,-368"/>
<polygon fill="black" stroke="black" points="1264.83,-371.24 1272.2,-363.63 1261.69,-364.98 1264.83,-371.24"/>
</g>
<!-- 18 -->
<g id="node19" class="node">
<title>18</title>
<polygon fill="#f8e0ce" stroke="black" points="1027.75,-199.25 781.5,-199.25 781.5,-144 1027.75,-144 1027.75,-199.25"/>
<text text-anchor="middle" x="904.62" y="-181.95" font-family="Helvetica,sans-Serif" font-size="14.00">MaritalStatus_Significant Other &lt;= 0.5</text>
<text text-anchor="middle" x="904.62" y="-166.2" font-family="Helvetica,sans-Serif" font-size="14.00">samples = 63</text>
<text text-anchor="middle" x="904.62" y="-150.45" font-family="Helvetica,sans-Serif" font-size="14.00">value = [36, 27]</text>
</g>
<!-- 17&#45;&gt;18 -->
<g id="edge18" class="edge">
<title>17&#45;&gt;18</title>
<path fill="none" stroke="black" d="M988.72,-306.89C971.97,-280.14 946.19,-238.99 927.59,-209.3"/>
<polygon fill="black" stroke="black" points="930.66,-207.6 922.39,-200.99 924.73,-211.32 930.66,-207.6"/>
</g>
<!-- 21 -->
<g id="node22" class="node">
<title>21</title>
<polygon fill="#b0d8f5" stroke="black" points="1181,-199.25 1032.25,-199.25 1032.25,-144 1181,-144 1181,-199.25"/>
<text text-anchor="middle" x="1106.62" y="-181.95" font-family="Helvetica,sans-Serif" font-size="14.00">v_decile_score &lt;= 6.5</text>
<text text-anchor="middle" x="1106.62" y="-166.2" font-family="Helvetica,sans-Serif" font-size="14.00">samples = 168</text>
<text text-anchor="middle" x="1106.62" y="-150.45" font-family="Helvetica,sans-Serif" font-size="14.00">value = [63, 105]</text>
</g>
<!-- 17&#45;&gt;21 -->
<g id="edge21" class="edge">
<title>17&#45;&gt;21</title>
<path fill="none" stroke="black" d="M1022.53,-306.89C1039.28,-280.14 1065.06,-238.99 1083.66,-209.3"/>
<polygon fill="black" stroke="black" points="1086.52,-211.32 1088.86,-200.99 1080.59,-207.6 1086.52,-211.32"/>
</g>
<!-- 19 -->
<g id="node20" class="node">
<title>19</title>
<polygon fill="#f6d5bd" stroke="black" points="935.5,-36 837.75,-36 837.75,0 935.5,0 935.5,-36"/>
<text text-anchor="middle" x="886.62" y="-12.57" font-family="Helvetica,sans-Serif" font-size="14.00">samples = 60</text>
</g>
<!-- 18&#45;&gt;19 -->
<g id="edge19" class="edge">
<title>18&#45;&gt;19</title>
<path fill="none" stroke="black" d="M901.41,-143.52C898.2,-116.51 893.3,-75.2 890.03,-47.66"/>
<polygon fill="black" stroke="black" points="893.53,-47.45 888.87,-37.93 886.58,-48.27 893.53,-47.45"/>
</g>
<!-- 20 -->
<g id="node21" class="node">
<title>20</title>
<polygon fill="#399de5" stroke="black" points="1029.75,-36 939.5,-36 939.5,0 1029.75,0 1029.75,-36"/>
<text text-anchor="middle" x="984.62" y="-12.57" font-family="Helvetica,sans-Serif" font-size="14.00">samples = 3</text>
</g>
<!-- 18&#45;&gt;20 -->
<g id="edge20" class="edge">
<title>18&#45;&gt;20</title>
<path fill="none" stroke="black" d="M918.93,-143.52C933.37,-116.15 955.56,-74.08 970.09,-46.55"/>
<polygon fill="black" stroke="black" points="973.15,-48.24 974.72,-37.76 966.96,-44.98 973.15,-48.24"/>
</g>
<!-- 22 -->
<g id="node23" class="node">
<title>22</title>
<polygon fill="#399de5" stroke="black" points="1131.5,-36 1033.75,-36 1033.75,0 1131.5,0 1131.5,-36"/>
<text text-anchor="middle" x="1082.62" y="-12.57" font-family="Helvetica,sans-Serif" font-size="14.00">samples = 10</text>
</g>
<!-- 21&#45;&gt;22 -->
<g id="edge22" class="edge">
<title>21&#45;&gt;22</title>
<path fill="none" stroke="black" d="M1102.33,-143.52C1098.06,-116.51 1091.52,-75.2 1087.16,-47.66"/>
<polygon fill="black" stroke="black" points="1090.64,-47.25 1085.62,-37.92 1083.73,-48.34 1090.64,-47.25"/>
</g>
<!-- 23 -->
<g id="node24" class="node">
<title>23</title>
<polygon fill="#bcdef6" stroke="black" points="1241.25,-36 1136,-36 1136,0 1241.25,0 1241.25,-36"/>
<text text-anchor="middle" x="1188.62" y="-12.57" font-family="Helvetica,sans-Serif" font-size="14.00">samples = 158</text>
</g>
<!-- 21&#45;&gt;23 -->
<g id="edge23" class="edge">
<title>21&#45;&gt;23</title>
<path fill="none" stroke="black" d="M1121.28,-143.52C1136.09,-116.15 1158.84,-74.08 1173.72,-46.55"/>
<polygon fill="black" stroke="black" points="1176.8,-48.22 1178.48,-37.76 1170.65,-44.89 1176.8,-48.22"/>
</g>
<!-- 25 -->
<g id="node26" class="node">
<title>25</title>
<polygon fill="#74baed" stroke="black" points="1397.12,-199.25 1258.12,-199.25 1258.12,-144 1397.12,-144 1397.12,-199.25"/>
<text text-anchor="middle" x="1327.62" y="-181.95" font-family="Helvetica,sans-Serif" font-size="14.00">jail_duration &lt;= 38.5</text>
<text text-anchor="middle" x="1327.62" y="-166.2" font-family="Helvetica,sans-Serif" font-size="14.00">samples = 222</text>
<text text-anchor="middle" x="1327.62" y="-150.45" font-family="Helvetica,sans-Serif" font-size="14.00">value = [51, 171]</text>
</g>
<!-- 24&#45;&gt;25 -->
<g id="edge25" class="edge">
<title>24&#45;&gt;25</title>
<path fill="none" stroke="black" d="M1327.62,-306.89C1327.62,-280.61 1327.62,-240.42 1327.62,-210.86"/>
<polygon fill="black" stroke="black" points="1331.13,-211.22 1327.63,-201.22 1324.13,-211.22 1331.13,-211.22"/>
</g>
<!-- 28 -->
<g id="node29" class="node">
<title>28</title>
<polygon fill="#e8f4fc" stroke="black" points="1578.88,-199.25 1432.38,-199.25 1432.38,-144 1578.88,-144 1578.88,-199.25"/>
<text text-anchor="middle" x="1505.62" y="-181.95" font-family="Helvetica,sans-Serif" font-size="14.00">jail_duration &lt;= 184.0</text>
<text text-anchor="middle" x="1505.62" y="-166.2" font-family="Helvetica,sans-Serif" font-size="14.00">samples = 49</text>
<text text-anchor="middle" x="1505.62" y="-150.45" font-family="Helvetica,sans-Serif" font-size="14.00">value = [23, 26]</text>
</g>
<!-- 24&#45;&gt;28 -->
<g id="edge28" class="edge">
<title>24&#45;&gt;28</title>
<path fill="none" stroke="black" d="M1357.42,-306.89C1387.58,-279.56 1434.35,-237.2 1467.26,-207.38"/>
<polygon fill="black" stroke="black" points="1469.55,-210.03 1474.61,-200.72 1464.85,-204.84 1469.55,-210.03"/>
</g>
<!-- 26 -->
<g id="node27" class="node">
<title>26</title>
<polygon fill="#7dbfee" stroke="black" points="1350.25,-36 1245,-36 1245,0 1350.25,0 1350.25,-36"/>
<text text-anchor="middle" x="1297.62" y="-12.57" font-family="Helvetica,sans-Serif" font-size="14.00">samples = 200</text>
</g>
<!-- 25&#45;&gt;26 -->
<g id="edge26" class="edge">
<title>25&#45;&gt;26</title>
<path fill="none" stroke="black" d="M1322.26,-143.52C1316.92,-116.51 1308.74,-75.2 1303.29,-47.66"/>
<polygon fill="black" stroke="black" points="1306.74,-47.04 1301.37,-37.91 1299.87,-48.4 1306.74,-47.04"/>
</g>
<!-- 27 -->
<g id="node28" class="node">
<title>27</title>
<polygon fill="#399de5" stroke="black" points="1452.5,-36 1354.75,-36 1354.75,0 1452.5,0 1452.5,-36"/>
<text text-anchor="middle" x="1403.62" y="-12.57" font-family="Helvetica,sans-Serif" font-size="14.00">samples = 22</text>
</g>
<!-- 25&#45;&gt;27 -->
<g id="edge27" class="edge">
<title>25&#45;&gt;27</title>
<path fill="none" stroke="black" d="M1341.21,-143.52C1354.93,-116.15 1376.02,-74.08 1389.81,-46.55"/>
<polygon fill="black" stroke="black" points="1392.86,-48.29 1394.21,-37.78 1386.6,-45.15 1392.86,-48.29"/>
</g>
<!-- 29 -->
<g id="node30" class="node">
<title>29</title>
<polygon fill="#f6d3ba" stroke="black" points="1554.5,-36 1456.75,-36 1456.75,0 1554.5,0 1554.5,-36"/>
<text text-anchor="middle" x="1505.62" y="-12.57" font-family="Helvetica,sans-Serif" font-size="14.00">samples = 33</text>
</g>
<!-- 28&#45;&gt;29 -->
<g id="edge29" class="edge">
<title>28&#45;&gt;29</title>
<path fill="none" stroke="black" d="M1505.62,-143.52C1505.62,-116.51 1505.62,-75.2 1505.62,-47.66"/>
<polygon fill="black" stroke="black" points="1509.13,-47.94 1505.63,-37.94 1502.13,-47.94 1509.13,-47.94"/>
</g>
<!-- 30 -->
<g id="node31" class="node">
<title>30</title>
<polygon fill="#67b4eb" stroke="black" points="1656.5,-36 1558.75,-36 1558.75,0 1656.5,0 1656.5,-36"/>
<text text-anchor="middle" x="1607.62" y="-12.57" font-family="Helvetica,sans-Serif" font-size="14.00">samples = 16</text>
</g>
<!-- 28&#45;&gt;30 -->
<g id="edge30" class="edge">
<title>28&#45;&gt;30</title>
<path fill="none" stroke="black" d="M1523.86,-143.52C1542.44,-115.9 1571.07,-73.34 1589.58,-45.83"/>
<polygon fill="black" stroke="black" points="1592.38,-47.93 1595.06,-37.68 1586.57,-44.03 1592.38,-47.93"/>
</g>
</g>
</svg>
