<?xml version="1.0" encoding="UTF-8" standalone="no"?>
<!DOCTYPE svg PUBLIC "-//W3C//DTD SVG 1.1//EN"
 "http://www.w3.org/Graphics/SVG/1.1/DTD/svg11.dtd">
<!-- Generated by graphviz version 12.2.1 (20241206.2353)
 -->
<!-- Title: Tree Pages: 1 -->
<svg width="576pt" height="263pt"
 viewBox="0.00 0.00 576.00 262.83" xmlns="http://www.w3.org/2000/svg" xmlns:xlink="http://www.w3.org/1999/xlink">
<g id="graph0" class="graph" transform="scale(0.311225 0.311225) rotate(0) translate(4 840.5)">
<title>Tree</title>
<polygon fill="white" stroke="none" points="-4,4 -4,-840.5 1846.75,-840.5 1846.75,4 -4,4"/>
<!-- 0 -->
<g id="node1" class="node">
<title>0</title>
<polygon fill="#ffffff" stroke="black" points="953.75,-836.5 820.75,-836.5 820.75,-781.25 953.75,-781.25 953.75,-836.5"/>
<text text-anchor="middle" x="887.25" y="-819.2" font-family="Helvetica,sans-Serif" font-size="14.00">priors_count &lt;= 1.5</text>
<text text-anchor="middle" x="887.25" y="-803.45" font-family="Helvetica,sans-Serif" font-size="14.00">samples = 1076</text>
<text text-anchor="middle" x="887.25" y="-787.7" font-family="Helvetica,sans-Serif" font-size="14.00">value = [538, 538]</text>
</g>
<!-- 1 -->
<g id="node2" class="node">
<title>1</title>
<polygon fill="#f4c9aa" stroke="black" points="803.25,-637.25 571.25,-637.25 571.25,-582 803.25,-582 803.25,-637.25"/>
<text text-anchor="middle" x="687.25" y="-619.95" font-family="Helvetica,sans-Serif" font-size="14.00">RiskOfViolence_DecileScore &lt;= 5.5</text>
<text text-anchor="middle" x="687.25" y="-604.2" font-family="Helvetica,sans-Serif" font-size="14.00">samples = 478</text>
<text text-anchor="middle" x="687.25" y="-588.45" font-family="Helvetica,sans-Serif" font-size="14.00">value = [304, 174]</text>
</g>
<!-- 0&#45;&gt;1 -->
<g id="edge1" class="edge">
<title>0&#45;&gt;1</title>
<path fill="none" stroke="black" d="M859.86,-780.86C824.2,-745.7 761.83,-684.17 722.62,-645.51"/>
<polygon fill="black" stroke="black" points="725.28,-643.22 715.71,-638.69 720.37,-648.2 725.28,-643.22"/>
<text text-anchor="middle" x="714.8" y="-657.2" font-family="Helvetica,sans-Serif" font-size="14.00">True</text>
</g>
<!-- 16 -->
<g id="node17" class="node">
<title>16</title>
<polygon fill="#b8dcf6" stroke="black" points="1254.25,-637.25 1022.25,-637.25 1022.25,-582 1254.25,-582 1254.25,-637.25"/>
<text text-anchor="middle" x="1138.25" y="-619.95" font-family="Helvetica,sans-Serif" font-size="14.00">RiskOfViolence_DecileScore &lt;= 2.5</text>
<text text-anchor="middle" x="1138.25" y="-604.2" font-family="Helvetica,sans-Serif" font-size="14.00">samples = 598</text>
<text text-anchor="middle" x="1138.25" y="-588.45" font-family="Helvetica,sans-Serif" font-size="14.00">value = [234, 364]</text>
</g>
<!-- 0&#45;&gt;16 -->
<g id="edge16" class="edge">
<title>0&#45;&gt;16</title>
<path fill="none" stroke="black" d="M921.62,-780.86C966.75,-745.4 1045.97,-683.14 1095.08,-644.55"/>
<polygon fill="black" stroke="black" points="1097,-647.49 1102.7,-638.56 1092.67,-641.99 1097,-647.49"/>
<text text-anchor="middle" x="1100.91" y="-657.02" font-family="Helvetica,sans-Serif" font-size="14.00">False</text>
</g>
<!-- 2 -->
<g id="node3" class="node">
<title>2</title>
<polygon fill="#f0b58b" stroke="black" points="436.75,-438 303.75,-438 303.75,-382.75 436.75,-382.75 436.75,-438"/>
<text text-anchor="middle" x="370.25" y="-420.7" font-family="Helvetica,sans-Serif" font-size="14.00">priors_count &lt;= 0.5</text>
<text text-anchor="middle" x="370.25" y="-404.95" font-family="Helvetica,sans-Serif" font-size="14.00">samples = 334</text>
<text text-anchor="middle" x="370.25" y="-389.2" font-family="Helvetica,sans-Serif" font-size="14.00">value = [236, 98]</text>
</g>
<!-- 1&#45;&gt;2 -->
<g id="edge2" class="edge">
<title>1&#45;&gt;2</title>
<path fill="none" stroke="black" d="M643.84,-581.61C586.38,-545.86 485.13,-482.86 423.23,-444.34"/>
<polygon fill="black" stroke="black" points="425.27,-441.49 414.93,-439.18 421.57,-447.43 425.27,-441.49"/>
</g>
<!-- 9 -->
<g id="node10" class="node">
<title>9</title>
<polygon fill="#eaf5fc" stroke="black" points="754.5,-438 620,-438 620,-382.75 754.5,-382.75 754.5,-438"/>
<text text-anchor="middle" x="687.25" y="-420.7" font-family="Helvetica,sans-Serif" font-size="14.00">decile_score &lt;= 5.5</text>
<text text-anchor="middle" x="687.25" y="-404.95" font-family="Helvetica,sans-Serif" font-size="14.00">samples = 144</text>
<text text-anchor="middle" x="687.25" y="-389.2" font-family="Helvetica,sans-Serif" font-size="14.00">value = [68, 76]</text>
</g>
<!-- 1&#45;&gt;9 -->
<g id="edge9" class="edge">
<title>1&#45;&gt;9</title>
<path fill="none" stroke="black" d="M687.25,-581.61C687.25,-547.48 687.25,-488.51 687.25,-449.72"/>
<polygon fill="black" stroke="black" points="690.75,-449.89 687.25,-439.89 683.75,-449.89 690.75,-449.89"/>
</g>
<!-- 3 -->
<g id="node4" class="node">
<title>3</title>
<polygon fill="#edaa79" stroke="black" points="255.88,-238.75 84.62,-238.75 84.62,-183.5 255.88,-183.5 255.88,-238.75"/>
<text text-anchor="middle" x="170.25" y="-221.45" font-family="Helvetica,sans-Serif" font-size="14.00">c_charge_degree &lt;= 13.0</text>
<text text-anchor="middle" x="170.25" y="-205.7" font-family="Helvetica,sans-Serif" font-size="14.00">samples = 222</text>
<text text-anchor="middle" x="170.25" y="-189.95" font-family="Helvetica,sans-Serif" font-size="14.00">value = [168, 54]</text>
</g>
<!-- 2&#45;&gt;3 -->
<g id="edge3" class="edge">
<title>2&#45;&gt;3</title>
<path fill="none" stroke="black" d="M342.86,-382.36C307.2,-347.2 244.83,-285.67 205.62,-247.01"/>
<polygon fill="black" stroke="black" points="208.28,-244.72 198.71,-240.19 203.37,-249.7 208.28,-244.72"/>
</g>
<!-- 6 -->
<g id="node7" class="node">
<title>6</title>
<polygon fill="#f6d3b9" stroke="black" points="452.12,-238.75 288.38,-238.75 288.38,-183.5 452.12,-183.5 452.12,-238.75"/>
<text text-anchor="middle" x="370.25" y="-221.45" font-family="Helvetica,sans-Serif" font-size="14.00">c_charge_degree &lt;= 9.0</text>
<text text-anchor="middle" x="370.25" y="-205.7" font-family="Helvetica,sans-Serif" font-size="14.00">samples = 112</text>
<text text-anchor="middle" x="370.25" y="-189.95" font-family="Helvetica,sans-Serif" font-size="14.00">value = [68, 44]</text>
</g>
<!-- 2&#45;&gt;6 -->
<g id="edge6" class="edge">
<title>2&#45;&gt;6</title>
<path fill="none" stroke="black" d="M370.25,-382.36C370.25,-348.23 370.25,-289.26 370.25,-250.47"/>
<polygon fill="black" stroke="black" points="373.75,-250.64 370.25,-240.64 366.75,-250.64 373.75,-250.64"/>
</g>
<!-- 4 -->
<g id="node5" class="node">
<title>4</title>
<polygon fill="#eda876" stroke="black" points="116.5,-39.5 0,-39.5 0,0 116.5,0 116.5,-39.5"/>
<text text-anchor="middle" x="58.25" y="-22.2" font-family="Helvetica,sans-Serif" font-size="14.00">samples = 220</text>
<text text-anchor="middle" x="58.25" y="-6.45" font-family="Helvetica,sans-Serif" font-size="14.00">value = [168, 52]</text>
</g>
<!-- 3&#45;&gt;4 -->
<g id="edge4" class="edge">
<title>3&#45;&gt;4</title>
<path fill="none" stroke="black" d="M154.44,-183.39C133.5,-147.98 96.7,-85.76 75.2,-49.41"/>
<polygon fill="black" stroke="black" points="78.44,-48.01 70.34,-41.18 72.41,-51.57 78.44,-48.01"/>
</g>
<!-- 5 -->
<g id="node6" class="node">
<title>5</title>
<polygon fill="#399de5" stroke="black" points="217.25,-39.5 123.25,-39.5 123.25,0 217.25,0 217.25,-39.5"/>
<text text-anchor="middle" x="170.25" y="-22.2" font-family="Helvetica,sans-Serif" font-size="14.00">samples = 2</text>
<text text-anchor="middle" x="170.25" y="-6.45" font-family="Helvetica,sans-Serif" font-size="14.00">value = [0, 2]</text>
</g>
<!-- 3&#45;&gt;5 -->
<g id="edge5" class="edge">
<title>3&#45;&gt;5</title>
<path fill="none" stroke="black" d="M170.25,-183.39C170.25,-148.59 170.25,-87.88 170.25,-51.29"/>
<polygon fill="black" stroke="black" points="173.75,-51.4 170.25,-41.4 166.75,-51.4 173.75,-51.4"/>
</g>
<!-- 7 -->
<g id="node8" class="node">
<title>7</title>
<polygon fill="#ffffff" stroke="black" points="333.75,-39.5 224.75,-39.5 224.75,0 333.75,0 333.75,-39.5"/>
<text text-anchor="middle" x="279.25" y="-22.2" font-family="Helvetica,sans-Serif" font-size="14.00">samples = 54</text>
<text text-anchor="middle" x="279.25" y="-6.45" font-family="Helvetica,sans-Serif" font-size="14.00">value = [27, 27]</text>
</g>
<!-- 6&#45;&gt;7 -->
<g id="edge7" class="edge">
<title>6&#45;&gt;7</title>
<path fill="none" stroke="black" d="M357.4,-183.39C340.46,-148.13 310.75,-86.29 293.24,-49.87"/>
<polygon fill="black" stroke="black" points="296.58,-48.74 289.1,-41.25 290.28,-51.78 296.58,-48.74"/>
</g>
<!-- 8 -->
<g id="node9" class="node">
<title>8</title>
<polygon fill="#f0b58b" stroke="black" points="449.75,-39.5 340.75,-39.5 340.75,0 449.75,0 449.75,-39.5"/>
<text text-anchor="middle" x="395.25" y="-22.2" font-family="Helvetica,sans-Serif" font-size="14.00">samples = 58</text>
<text text-anchor="middle" x="395.25" y="-6.45" font-family="Helvetica,sans-Serif" font-size="14.00">value = [41, 17]</text>
</g>
<!-- 6&#45;&gt;8 -->
<g id="edge8" class="edge">
<title>6&#45;&gt;8</title>
<path fill="none" stroke="black" d="M373.78,-183.39C378.37,-148.59 386.39,-87.88 391.22,-51.29"/>
<polygon fill="black" stroke="black" points="394.69,-51.75 392.53,-41.38 387.75,-50.84 394.69,-51.75"/>
</g>
<!-- 10 -->
<g id="node11" class="node">
<title>10</title>
<polygon fill="#f5cdb1" stroke="black" points="678.75,-238.75 569.75,-238.75 569.75,-183.5 678.75,-183.5 678.75,-238.75"/>
<text text-anchor="middle" x="624.25" y="-221.45" font-family="Helvetica,sans-Serif" font-size="14.00">age &lt;= 19.5</text>
<text text-anchor="middle" x="624.25" y="-205.7" font-family="Helvetica,sans-Serif" font-size="14.00">samples = 53</text>
<text text-anchor="middle" x="624.25" y="-189.95" font-family="Helvetica,sans-Serif" font-size="14.00">value = [33, 20]</text>
</g>
<!-- 9&#45;&gt;10 -->
<g id="edge10" class="edge">
<title>9&#45;&gt;10</title>
<path fill="none" stroke="black" d="M678.62,-382.36C667.67,-348.08 648.72,-288.75 636.34,-249.97"/>
<polygon fill="black" stroke="black" points="639.71,-249.03 633.33,-240.57 633.04,-251.16 639.71,-249.03"/>
</g>
<!-- 13 -->
<g id="node14" class="node">
<title>13</title>
<polygon fill="#b5daf5" stroke="black" points="805.75,-238.75 696.75,-238.75 696.75,-183.5 805.75,-183.5 805.75,-238.75"/>
<text text-anchor="middle" x="751.25" y="-221.45" font-family="Helvetica,sans-Serif" font-size="14.00">age &lt;= 23.5</text>
<text text-anchor="middle" x="751.25" y="-205.7" font-family="Helvetica,sans-Serif" font-size="14.00">samples = 91</text>
<text text-anchor="middle" x="751.25" y="-189.95" font-family="Helvetica,sans-Serif" font-size="14.00">value = [35, 56]</text>
</g>
<!-- 9&#45;&gt;13 -->
<g id="edge13" class="edge">
<title>9&#45;&gt;13</title>
<path fill="none" stroke="black" d="M696.01,-382.36C707.14,-348.08 726.39,-288.75 738.97,-249.97"/>
<polygon fill="black" stroke="black" points="742.26,-251.16 742.02,-240.57 735.61,-249 742.26,-251.16"/>
</g>
<!-- 11 -->
<g id="node12" class="node">
<title>11</title>
<polygon fill="#399de5" stroke="black" points="551.25,-39.5 457.25,-39.5 457.25,0 551.25,0 551.25,-39.5"/>
<text text-anchor="middle" x="504.25" y="-22.2" font-family="Helvetica,sans-Serif" font-size="14.00">samples = 4</text>
<text text-anchor="middle" x="504.25" y="-6.45" font-family="Helvetica,sans-Serif" font-size="14.00">value = [0, 4]</text>
</g>
<!-- 10&#45;&gt;11 -->
<g id="edge11" class="edge">
<title>10&#45;&gt;11</title>
<path fill="none" stroke="black" d="M607.31,-183.39C584.87,-147.98 545.45,-85.76 522.41,-49.41"/>
<polygon fill="black" stroke="black" points="525.49,-47.73 517.18,-41.16 519.58,-51.48 525.49,-47.73"/>
</g>
<!-- 12 -->
<g id="node13" class="node">
<title>12</title>
<polygon fill="#f2be99" stroke="black" points="690,-39.5 558.5,-39.5 558.5,0 690,0 690,-39.5"/>
<text text-anchor="middle" x="624.25" y="-22.2" font-family="Helvetica,sans-Serif" font-size="14.00">samples = 49</text>
<text text-anchor="middle" x="624.25" y="-6.45" font-family="Helvetica,sans-Serif" font-size="14.00">value = [33.0, 16.0]</text>
</g>
<!-- 10&#45;&gt;12 -->
<g id="edge12" class="edge">
<title>10&#45;&gt;12</title>
<path fill="none" stroke="black" d="M624.25,-183.39C624.25,-148.59 624.25,-87.88 624.25,-51.29"/>
<polygon fill="black" stroke="black" points="627.75,-51.4 624.25,-41.4 620.75,-51.4 627.75,-51.4"/>
</g>
<!-- 14 -->
<g id="node15" class="node">
<title>14</title>
<polygon fill="#8dc7f0" stroke="black" points="805.75,-39.5 696.75,-39.5 696.75,0 805.75,0 805.75,-39.5"/>
<text text-anchor="middle" x="751.25" y="-22.2" font-family="Helvetica,sans-Serif" font-size="14.00">samples = 67</text>
<text text-anchor="middle" x="751.25" y="-6.45" font-family="Helvetica,sans-Serif" font-size="14.00">value = [20, 47]</text>
</g>
<!-- 13&#45;&gt;14 -->
<g id="edge14" class="edge">
<title>13&#45;&gt;14</title>
<path fill="none" stroke="black" d="M751.25,-183.39C751.25,-148.59 751.25,-87.88 751.25,-51.29"/>
<polygon fill="black" stroke="black" points="754.75,-51.4 751.25,-41.4 747.75,-51.4 754.75,-51.4"/>
</g>
<!-- 15 -->
<g id="node16" class="node">
<title>15</title>
<polygon fill="#f5cdb0" stroke="black" points="914,-39.5 812.5,-39.5 812.5,0 914,0 914,-39.5"/>
<text text-anchor="middle" x="863.25" y="-22.2" font-family="Helvetica,sans-Serif" font-size="14.00">samples = 24</text>
<text text-anchor="middle" x="863.25" y="-6.45" font-family="Helvetica,sans-Serif" font-size="14.00">value = [15, 9]</text>
</g>
<!-- 13&#45;&gt;15 -->
<g id="edge15" class="edge">
<title>13&#45;&gt;15</title>
<path fill="none" stroke="black" d="M767.06,-183.39C788,-147.98 824.8,-85.76 846.3,-49.41"/>
<polygon fill="black" stroke="black" points="849.09,-51.57 851.16,-41.18 843.06,-48.01 849.09,-51.57"/>
</g>
<!-- 17 -->
<g id="node18" class="node">
<title>17</title>
<polygon fill="#f7dac5" stroke="black" points="1192.75,-438 1083.75,-438 1083.75,-382.75 1192.75,-382.75 1192.75,-438"/>
<text text-anchor="middle" x="1138.25" y="-420.7" font-family="Helvetica,sans-Serif" font-size="14.00">age &lt;= 38.5</text>
<text text-anchor="middle" x="1138.25" y="-404.95" font-family="Helvetica,sans-Serif" font-size="14.00">samples = 99</text>
<text text-anchor="middle" x="1138.25" y="-389.2" font-family="Helvetica,sans-Serif" font-size="14.00">value = [58, 41]</text>
</g>
<!-- 16&#45;&gt;17 -->
<g id="edge17" class="edge">
<title>16&#45;&gt;17</title>
<path fill="none" stroke="black" d="M1138.25,-581.61C1138.25,-547.48 1138.25,-488.51 1138.25,-449.72"/>
<polygon fill="black" stroke="black" points="1141.75,-449.89 1138.25,-439.89 1134.75,-449.89 1141.75,-449.89"/>
</g>
<!-- 24 -->
<g id="node25" class="node">
<title>24</title>
<polygon fill="#a5d2f3" stroke="black" points="1514.75,-438 1381.75,-438 1381.75,-382.75 1514.75,-382.75 1514.75,-438"/>
<text text-anchor="middle" x="1448.25" y="-420.7" font-family="Helvetica,sans-Serif" font-size="14.00">priors_count &lt;= 3.5</text>
<text text-anchor="middle" x="1448.25" y="-404.95" font-family="Helvetica,sans-Serif" font-size="14.00">samples = 499</text>
<text text-anchor="middle" x="1448.25" y="-389.2" font-family="Helvetica,sans-Serif" font-size="14.00">value = [176, 323]</text>
</g>
<!-- 16&#45;&gt;24 -->
<g id="edge24" class="edge">
<title>16&#45;&gt;24</title>
<path fill="none" stroke="black" d="M1180.7,-581.61C1236.9,-545.86 1335.91,-482.86 1396.44,-444.34"/>
<polygon fill="black" stroke="black" points="1397.98,-447.51 1404.54,-439.19 1394.22,-441.61 1397.98,-447.51"/>
</g>
<!-- 18 -->
<g id="node19" class="node">
<title>18</title>
<polygon fill="#e6f3fc" stroke="black" points="1118,-238.75 986.5,-238.75 986.5,-183.5 1118,-183.5 1118,-238.75"/>
<text text-anchor="middle" x="1052.25" y="-221.45" font-family="Helvetica,sans-Serif" font-size="14.00">jail_duration &lt;= 1.5</text>
<text text-anchor="middle" x="1052.25" y="-205.7" font-family="Helvetica,sans-Serif" font-size="14.00">samples = 60</text>
<text text-anchor="middle" x="1052.25" y="-189.95" font-family="Helvetica,sans-Serif" font-size="14.00">value = [28, 32]</text>
</g>
<!-- 17&#45;&gt;18 -->
<g id="edge18" class="edge">
<title>17&#45;&gt;18</title>
<path fill="none" stroke="black" d="M1126.47,-382.36C1111.46,-347.93 1085.43,-288.24 1068.53,-249.47"/>
<polygon fill="black" stroke="black" points="1071.83,-248.28 1064.63,-240.52 1065.42,-251.08 1071.83,-248.28"/>
</g>
<!-- 21 -->
<g id="node22" class="node">
<title>21</title>
<polygon fill="#eda774" stroke="black" points="1323.75,-238.75 1124.75,-238.75 1124.75,-183.5 1323.75,-183.5 1323.75,-238.75"/>
<text text-anchor="middle" x="1224.25" y="-221.45" font-family="Helvetica,sans-Serif" font-size="14.00">MaritalStatus_Divorced &lt;= 0.5</text>
<text text-anchor="middle" x="1224.25" y="-205.7" font-family="Helvetica,sans-Serif" font-size="14.00">samples = 39</text>
<text text-anchor="middle" x="1224.25" y="-189.95" font-family="Helvetica,sans-Serif" font-size="14.00">value = [30, 9]</text>
</g>
<!-- 17&#45;&gt;21 -->
<g id="edge21" class="edge">
<title>17&#45;&gt;21</title>
<path fill="none" stroke="black" d="M1150.03,-382.36C1165.04,-347.93 1191.07,-288.24 1207.97,-249.47"/>
<polygon fill="black" stroke="black" points="1211.08,-251.08 1211.87,-240.52 1204.67,-248.28 1211.08,-251.08"/>
</g>
<!-- 19 -->
<g id="node20" class="node">
<title>19</title>
<polygon fill="#f5d0b5" stroke="black" points="1029.75,-39.5 920.75,-39.5 920.75,0 1029.75,0 1029.75,-39.5"/>
<text text-anchor="middle" x="975.25" y="-22.2" font-family="Helvetica,sans-Serif" font-size="14.00">samples = 39</text>
<text text-anchor="middle" x="975.25" y="-6.45" font-family="Helvetica,sans-Serif" font-size="14.00">value = [24, 15]</text>
</g>
<!-- 18&#45;&gt;19 -->
<g id="edge19" class="edge">
<title>18&#45;&gt;19</title>
<path fill="none" stroke="black" d="M1041.38,-183.39C1027.1,-148.28 1002.12,-86.82 987.28,-50.34"/>
<polygon fill="black" stroke="black" points="990.61,-49.23 983.6,-41.28 984.12,-51.87 990.61,-49.23"/>
</g>
<!-- 20 -->
<g id="node21" class="node">
<title>20</title>
<polygon fill="#68b4eb" stroke="black" points="1138,-39.5 1036.5,-39.5 1036.5,0 1138,0 1138,-39.5"/>
<text text-anchor="middle" x="1087.25" y="-22.2" font-family="Helvetica,sans-Serif" font-size="14.00">samples = 21</text>
<text text-anchor="middle" x="1087.25" y="-6.45" font-family="Helvetica,sans-Serif" font-size="14.00">value = [4, 17]</text>
</g>
<!-- 18&#45;&gt;20 -->
<g id="edge20" class="edge">
<title>18&#45;&gt;20</title>
<path fill="none" stroke="black" d="M1057.19,-183.39C1063.65,-148.43 1074.94,-87.35 1081.69,-50.82"/>
<polygon fill="black" stroke="black" points="1085.06,-51.84 1083.44,-41.37 1078.18,-50.57 1085.06,-51.84"/>
</g>
<!-- 22 -->
<g id="node23" class="node">
<title>22</title>
<polygon fill="#eca36e" stroke="black" points="1247,-39.5 1145.5,-39.5 1145.5,0 1247,0 1247,-39.5"/>
<text text-anchor="middle" x="1196.25" y="-22.2" font-family="Helvetica,sans-Serif" font-size="14.00">samples = 38</text>
<text text-anchor="middle" x="1196.25" y="-6.45" font-family="Helvetica,sans-Serif" font-size="14.00">value = [30, 8]</text>
</g>
<!-- 21&#45;&gt;22 -->
<g id="edge22" class="edge">
<title>21&#45;&gt;22</title>
<path fill="none" stroke="black" d="M1220.3,-183.39C1215.13,-148.43 1206.1,-87.35 1200.7,-50.82"/>
<polygon fill="black" stroke="black" points="1204.23,-50.76 1199.3,-41.38 1197.3,-51.78 1204.23,-50.76"/>
</g>
<!-- 23 -->
<g id="node24" class="node">
<title>23</title>
<polygon fill="#399de5" stroke="black" points="1348.25,-39.5 1254.25,-39.5 1254.25,0 1348.25,0 1348.25,-39.5"/>
<text text-anchor="middle" x="1301.25" y="-22.2" font-family="Helvetica,sans-Serif" font-size="14.00">samples = 1</text>
<text text-anchor="middle" x="1301.25" y="-6.45" font-family="Helvetica,sans-Serif" font-size="14.00">value = [0, 1]</text>
</g>
<!-- 21&#45;&gt;23 -->
<g id="edge23" class="edge">
<title>21&#45;&gt;23</title>
<path fill="none" stroke="black" d="M1235.12,-183.39C1249.4,-148.28 1274.38,-86.82 1289.22,-50.34"/>
<polygon fill="black" stroke="black" points="1292.38,-51.87 1292.9,-41.28 1285.89,-49.23 1292.38,-51.87"/>
</g>
<!-- 25 -->
<g id="node26" class="node">
<title>25</title>
<polygon fill="#d2e9f9" stroke="black" points="1564.25,-238.75 1332.25,-238.75 1332.25,-183.5 1564.25,-183.5 1564.25,-238.75"/>
<text text-anchor="middle" x="1448.25" y="-221.45" font-family="Helvetica,sans-Serif" font-size="14.00">RiskOfViolence_DecileScore &lt;= 5.5</text>
<text text-anchor="middle" x="1448.25" y="-205.7" font-family="Helvetica,sans-Serif" font-size="14.00">samples = 172</text>
<text text-anchor="middle" x="1448.25" y="-189.95" font-family="Helvetica,sans-Serif" font-size="14.00">value = [75, 97]</text>
</g>
<!-- 24&#45;&gt;25 -->
<g id="edge25" class="edge">
<title>24&#45;&gt;25</title>
<path fill="none" stroke="black" d="M1448.25,-382.36C1448.25,-348.23 1448.25,-289.26 1448.25,-250.47"/>
<polygon fill="black" stroke="black" points="1451.75,-250.64 1448.25,-240.64 1444.75,-250.64 1451.75,-250.64"/>
</g>
<!-- 28 -->
<g id="node29" class="node">
<title>28</title>
<polygon fill="#91c9f1" stroke="black" points="1737.75,-238.75 1598.75,-238.75 1598.75,-183.5 1737.75,-183.5 1737.75,-238.75"/>
<text text-anchor="middle" x="1668.25" y="-221.45" font-family="Helvetica,sans-Serif" font-size="14.00">jail_duration &lt;= 66.0</text>
<text text-anchor="middle" x="1668.25" y="-205.7" font-family="Helvetica,sans-Serif" font-size="14.00">samples = 327</text>
<text text-anchor="middle" x="1668.25" y="-189.95" font-family="Helvetica,sans-Serif" font-size="14.00">value = [101, 226]</text>
</g>
<!-- 24&#45;&gt;28 -->
<g id="edge28" class="edge">
<title>24&#45;&gt;28</title>
<path fill="none" stroke="black" d="M1478.38,-382.36C1517.68,-347.12 1586.5,-285.42 1629.61,-246.77"/>
<polygon fill="black" stroke="black" points="1631.9,-249.42 1637.01,-240.14 1627.22,-244.21 1631.9,-249.42"/>
</g>
<!-- 26 -->
<g id="node27" class="node">
<title>26</title>
<polygon fill="#fbebe0" stroke="black" points="1487,-39.5 1355.5,-39.5 1355.5,0 1487,0 1487,-39.5"/>
<text text-anchor="middle" x="1421.25" y="-22.2" font-family="Helvetica,sans-Serif" font-size="14.00">samples = 94</text>
<text text-anchor="middle" x="1421.25" y="-6.45" font-family="Helvetica,sans-Serif" font-size="14.00">value = [51.0, 43.0]</text>
</g>
<!-- 25&#45;&gt;26 -->
<g id="edge26" class="edge">
<title>25&#45;&gt;26</title>
<path fill="none" stroke="black" d="M1444.44,-183.39C1439.45,-148.43 1430.75,-87.35 1425.54,-50.82"/>
<polygon fill="black" stroke="black" points="1429.07,-50.79 1424.19,-41.38 1422.14,-51.77 1429.07,-50.79"/>
</g>
<!-- 27 -->
<g id="node28" class="node">
<title>27</title>
<polygon fill="#91c9f1" stroke="black" points="1602.75,-39.5 1493.75,-39.5 1493.75,0 1602.75,0 1602.75,-39.5"/>
<text text-anchor="middle" x="1548.25" y="-22.2" font-family="Helvetica,sans-Serif" font-size="14.00">samples = 78</text>
<text text-anchor="middle" x="1548.25" y="-6.45" font-family="Helvetica,sans-Serif" font-size="14.00">value = [24, 54]</text>
</g>
<!-- 25&#45;&gt;27 -->
<g id="edge27" class="edge">
<title>25&#45;&gt;27</title>
<path fill="none" stroke="black" d="M1462.37,-183.39C1480.99,-148.13 1513.64,-86.29 1532.87,-49.87"/>
<polygon fill="black" stroke="black" points="1535.87,-51.7 1537.44,-41.22 1529.68,-48.43 1535.87,-51.7"/>
</g>
<!-- 29 -->
<g id="node30" class="node">
<title>29</title>
<polygon fill="#87c4ef" stroke="black" points="1726.5,-39.5 1610,-39.5 1610,0 1726.5,0 1726.5,-39.5"/>
<text text-anchor="middle" x="1668.25" y="-22.2" font-family="Helvetica,sans-Serif" font-size="14.00">samples = 279</text>
<text text-anchor="middle" x="1668.25" y="-6.45" font-family="Helvetica,sans-Serif" font-size="14.00">value = [79, 200]</text>
</g>
<!-- 28&#45;&gt;29 -->
<g id="edge29" class="edge">
<title>28&#45;&gt;29</title>
<path fill="none" stroke="black" d="M1668.25,-183.39C1668.25,-148.59 1668.25,-87.88 1668.25,-51.29"/>
<polygon fill="black" stroke="black" points="1671.75,-51.4 1668.25,-41.4 1664.75,-51.4 1671.75,-51.4"/>
</g>
<!-- 30 -->
<g id="node31" class="node">
<title>30</title>
<polygon fill="#e1f0fb" stroke="black" points="1842.75,-39.5 1733.75,-39.5 1733.75,0 1842.75,0 1842.75,-39.5"/>
<text text-anchor="middle" x="1788.25" y="-22.2" font-family="Helvetica,sans-Serif" font-size="14.00">samples = 48</text>
<text text-anchor="middle" x="1788.25" y="-6.45" font-family="Helvetica,sans-Serif" font-size="14.00">value = [22, 26]</text>
</g>
<!-- 28&#45;&gt;30 -->
<g id="edge30" class="edge">
<title>28&#45;&gt;30</title>
<path fill="none" stroke="black" d="M1685.19,-183.39C1707.63,-147.98 1747.05,-85.76 1770.09,-49.41"/>
<polygon fill="black" stroke="black" points="1772.92,-51.48 1775.32,-41.16 1767.01,-47.73 1772.92,-51.48"/>
</g>
</g>
</svg>
