<?xml version="1.0" encoding="UTF-8" standalone="no"?>
<!DOCTYPE svg PUBLIC "-//W3C//DTD SVG 1.1//EN"
 "http://www.w3.org/Graphics/SVG/1.1/DTD/svg11.dtd">
<!-- Generated by graphviz version 12.2.1 (20241206.2353)
 -->
<!-- Title: Tree Pages: 1 -->
<svg width="576pt" height="247pt"
 viewBox="0.00 0.00 576.00 246.68" xmlns="http://www.w3.org/2000/svg" xmlns:xlink="http://www.w3.org/1999/xlink">
<g id="graph0" class="graph" transform="scale(0.353917 0.353917) rotate(0) translate(4 693)">
<title>Tree</title>
<polygon fill="white" stroke="none" points="-4,4 -4,-693 1623.5,-693 1623.5,4 -4,4"/>
<!-- 0 -->
<g id="node1" class="node">
<title>0</title>
<polygon fill="#ffffff" stroke="black" points="843.12,-689 710.12,-689 710.12,-633.75 843.12,-633.75 843.12,-689"/>
<text text-anchor="middle" x="776.62" y="-671.7" font-family="Helvetica,sans-Serif" font-size="14.00">priors_count &lt;= 1.5</text>
<text text-anchor="middle" x="776.62" y="-655.95" font-family="Helvetica,sans-Serif" font-size="14.00">samples = 1076</text>
<text text-anchor="middle" x="776.62" y="-640.2" font-family="Helvetica,sans-Serif" font-size="14.00">value = [538, 538]</text>
</g>
<!-- 1 -->
<g id="node2" class="node">
<title>1</title>
<polygon fill="#f4c9aa" stroke="black" points="716.62,-525.75 484.62,-525.75 484.62,-470.5 716.62,-470.5 716.62,-525.75"/>
<text text-anchor="middle" x="600.62" y="-508.45" font-family="Helvetica,sans-Serif" font-size="14.00">RiskOfViolence_DecileScore &lt;= 5.5</text>
<text text-anchor="middle" x="600.62" y="-492.7" font-family="Helvetica,sans-Serif" font-size="14.00">samples = 478</text>
<text text-anchor="middle" x="600.62" y="-476.95" font-family="Helvetica,sans-Serif" font-size="14.00">value = [304, 174]</text>
</g>
<!-- 0&#45;&gt;1 -->
<g id="edge1" class="edge">
<title>0&#45;&gt;1</title>
<path fill="none" stroke="black" d="M747.17,-633.39C717.34,-606.06 671.1,-563.7 638.56,-533.88"/>
<polygon fill="black" stroke="black" points="641.03,-531.4 631.3,-527.23 636.3,-536.56 641.03,-531.4"/>
<text text-anchor="middle" x="631.27" y="-545.75" font-family="Helvetica,sans-Serif" font-size="14.00">True</text>
</g>
<!-- 16 -->
<g id="node17" class="node">
<title>16</title>
<polygon fill="#b8dcf6" stroke="black" points="1091.62,-525.75 859.62,-525.75 859.62,-470.5 1091.62,-470.5 1091.62,-525.75"/>
<text text-anchor="middle" x="975.62" y="-508.45" font-family="Helvetica,sans-Serif" font-size="14.00">RiskOfViolence_DecileScore &lt;= 2.5</text>
<text text-anchor="middle" x="975.62" y="-492.7" font-family="Helvetica,sans-Serif" font-size="14.00">samples = 598</text>
<text text-anchor="middle" x="975.62" y="-476.95" font-family="Helvetica,sans-Serif" font-size="14.00">value = [234, 364]</text>
</g>
<!-- 0&#45;&gt;16 -->
<g id="edge16" class="edge">
<title>0&#45;&gt;16</title>
<path fill="none" stroke="black" d="M809.93,-633.39C843.94,-605.83 896.83,-562.97 933.67,-533.12"/>
<polygon fill="black" stroke="black" points="935.47,-536.17 941.03,-527.16 931.06,-530.73 935.47,-536.17"/>
<text text-anchor="middle" x="939.6" y="-545.64" font-family="Helvetica,sans-Serif" font-size="14.00">False</text>
</g>
<!-- 2 -->
<g id="node3" class="node">
<title>2</title>
<polygon fill="#f0b58b" stroke="black" points="407.12,-362.5 274.12,-362.5 274.12,-307.25 407.12,-307.25 407.12,-362.5"/>
<text text-anchor="middle" x="340.62" y="-345.2" font-family="Helvetica,sans-Serif" font-size="14.00">priors_count &lt;= 0.5</text>
<text text-anchor="middle" x="340.62" y="-329.45" font-family="Helvetica,sans-Serif" font-size="14.00">samples = 334</text>
<text text-anchor="middle" x="340.62" y="-313.7" font-family="Helvetica,sans-Serif" font-size="14.00">value = [236, 98]</text>
</g>
<!-- 1&#45;&gt;2 -->
<g id="edge2" class="edge">
<title>1&#45;&gt;2</title>
<path fill="none" stroke="black" d="M557.11,-470.14C512.21,-442.29 442.11,-398.82 393.92,-368.93"/>
<polygon fill="black" stroke="black" points="395.91,-366.05 385.57,-363.75 392.22,-372 395.91,-366.05"/>
</g>
<!-- 9 -->
<g id="node10" class="node">
<title>9</title>
<polygon fill="#eaf5fc" stroke="black" points="667.88,-362.5 533.38,-362.5 533.38,-307.25 667.88,-307.25 667.88,-362.5"/>
<text text-anchor="middle" x="600.62" y="-345.2" font-family="Helvetica,sans-Serif" font-size="14.00">decile_score &lt;= 5.5</text>
<text text-anchor="middle" x="600.62" y="-329.45" font-family="Helvetica,sans-Serif" font-size="14.00">samples = 144</text>
<text text-anchor="middle" x="600.62" y="-313.7" font-family="Helvetica,sans-Serif" font-size="14.00">value = [68, 76]</text>
</g>
<!-- 1&#45;&gt;9 -->
<g id="edge9" class="edge">
<title>1&#45;&gt;9</title>
<path fill="none" stroke="black" d="M600.62,-470.14C600.62,-443.86 600.62,-403.67 600.62,-374.11"/>
<polygon fill="black" stroke="black" points="604.13,-374.47 600.63,-364.47 597.13,-374.47 604.13,-374.47"/>
</g>
<!-- 3 -->
<g id="node4" class="node">
<title>3</title>
<polygon fill="#edaa79" stroke="black" points="240.25,-199.25 69,-199.25 69,-144 240.25,-144 240.25,-199.25"/>
<text text-anchor="middle" x="154.62" y="-181.95" font-family="Helvetica,sans-Serif" font-size="14.00">c_charge_degree &lt;= 13.0</text>
<text text-anchor="middle" x="154.62" y="-166.2" font-family="Helvetica,sans-Serif" font-size="14.00">samples = 222</text>
<text text-anchor="middle" x="154.62" y="-150.45" font-family="Helvetica,sans-Serif" font-size="14.00">value = [168, 54]</text>
</g>
<!-- 2&#45;&gt;3 -->
<g id="edge3" class="edge">
<title>2&#45;&gt;3</title>
<path fill="none" stroke="black" d="M309.49,-306.89C277.84,-279.44 228.69,-236.83 194.27,-207"/>
<polygon fill="black" stroke="black" points="196.85,-204.6 187,-200.69 192.27,-209.89 196.85,-204.6"/>
</g>
<!-- 6 -->
<g id="node7" class="node">
<title>6</title>
<polygon fill="#f6d3b9" stroke="black" points="422.5,-199.25 258.75,-199.25 258.75,-144 422.5,-144 422.5,-199.25"/>
<text text-anchor="middle" x="340.62" y="-181.95" font-family="Helvetica,sans-Serif" font-size="14.00">c_charge_degree &lt;= 9.0</text>
<text text-anchor="middle" x="340.62" y="-166.2" font-family="Helvetica,sans-Serif" font-size="14.00">samples = 112</text>
<text text-anchor="middle" x="340.62" y="-150.45" font-family="Helvetica,sans-Serif" font-size="14.00">value = [68, 44]</text>
</g>
<!-- 2&#45;&gt;6 -->
<g id="edge6" class="edge">
<title>2&#45;&gt;6</title>
<path fill="none" stroke="black" d="M340.62,-306.89C340.62,-280.61 340.62,-240.42 340.62,-210.86"/>
<polygon fill="black" stroke="black" points="344.13,-211.22 340.63,-201.22 337.13,-211.22 344.13,-211.22"/>
</g>
<!-- 4 -->
<g id="node5" class="node">
<title>4</title>
<polygon fill="#eda876" stroke="black" points="105.25,-36 0,-36 0,0 105.25,0 105.25,-36"/>
<text text-anchor="middle" x="52.62" y="-12.57" font-family="Helvetica,sans-Serif" font-size="14.00">samples = 220</text>
</g>
<!-- 3&#45;&gt;4 -->
<g id="edge4" class="edge">
<title>3&#45;&gt;4</title>
<path fill="none" stroke="black" d="M136.39,-143.52C117.81,-115.9 89.18,-73.34 70.67,-45.83"/>
<polygon fill="black" stroke="black" points="73.68,-44.03 65.19,-37.68 67.87,-47.93 73.68,-44.03"/>
</g>
<!-- 5 -->
<g id="node6" class="node">
<title>5</title>
<polygon fill="#399de5" stroke="black" points="199.75,-36 109.5,-36 109.5,0 199.75,0 199.75,-36"/>
<text text-anchor="middle" x="154.62" y="-12.57" font-family="Helvetica,sans-Serif" font-size="14.00">samples = 2</text>
</g>
<!-- 3&#45;&gt;5 -->
<g id="edge5" class="edge">
<title>3&#45;&gt;5</title>
<path fill="none" stroke="black" d="M154.62,-143.52C154.62,-116.51 154.62,-75.2 154.62,-47.66"/>
<polygon fill="black" stroke="black" points="158.13,-47.94 154.63,-37.94 151.13,-47.94 158.13,-47.94"/>
</g>
<!-- 7 -->
<g id="node8" class="node">
<title>7</title>
<polygon fill="#ffffff" stroke="black" points="301.5,-36 203.75,-36 203.75,0 301.5,0 301.5,-36"/>
<text text-anchor="middle" x="252.62" y="-12.57" font-family="Helvetica,sans-Serif" font-size="14.00">samples = 54</text>
</g>
<!-- 6&#45;&gt;7 -->
<g id="edge7" class="edge">
<title>6&#45;&gt;7</title>
<path fill="none" stroke="black" d="M324.89,-143.52C308.94,-116.02 284.38,-73.71 268.4,-46.19"/>
<polygon fill="black" stroke="black" points="271.55,-44.63 263.5,-37.73 265.49,-48.14 271.55,-44.63"/>
</g>
<!-- 8 -->
<g id="node9" class="node">
<title>8</title>
<polygon fill="#f0b58b" stroke="black" points="403.5,-36 305.75,-36 305.75,0 403.5,0 403.5,-36"/>
<text text-anchor="middle" x="354.62" y="-12.57" font-family="Helvetica,sans-Serif" font-size="14.00">samples = 58</text>
</g>
<!-- 6&#45;&gt;8 -->
<g id="edge8" class="edge">
<title>6&#45;&gt;8</title>
<path fill="none" stroke="black" d="M343.13,-143.52C345.62,-116.51 349.44,-75.2 351.98,-47.66"/>
<polygon fill="black" stroke="black" points="355.44,-48.21 352.88,-37.93 348.47,-47.57 355.44,-48.21"/>
</g>
<!-- 10 -->
<g id="node11" class="node">
<title>10</title>
<polygon fill="#f5cdb1" stroke="black" points="599.12,-199.25 490.12,-199.25 490.12,-144 599.12,-144 599.12,-199.25"/>
<text text-anchor="middle" x="544.62" y="-181.95" font-family="Helvetica,sans-Serif" font-size="14.00">age &lt;= 19.5</text>
<text text-anchor="middle" x="544.62" y="-166.2" font-family="Helvetica,sans-Serif" font-size="14.00">samples = 53</text>
<text text-anchor="middle" x="544.62" y="-150.45" font-family="Helvetica,sans-Serif" font-size="14.00">value = [33, 20]</text>
</g>
<!-- 9&#45;&gt;10 -->
<g id="edge10" class="edge">
<title>9&#45;&gt;10</title>
<path fill="none" stroke="black" d="M591.25,-306.89C582.09,-280.49 568.05,-240.06 557.77,-210.46"/>
<polygon fill="black" stroke="black" points="561.11,-209.43 554.53,-201.13 554.5,-211.73 561.11,-209.43"/>
</g>
<!-- 13 -->
<g id="node14" class="node">
<title>13</title>
<polygon fill="#b5daf5" stroke="black" points="712.12,-199.25 603.12,-199.25 603.12,-144 712.12,-144 712.12,-199.25"/>
<text text-anchor="middle" x="657.62" y="-181.95" font-family="Helvetica,sans-Serif" font-size="14.00">age &lt;= 23.5</text>
<text text-anchor="middle" x="657.62" y="-166.2" font-family="Helvetica,sans-Serif" font-size="14.00">samples = 91</text>
<text text-anchor="middle" x="657.62" y="-150.45" font-family="Helvetica,sans-Serif" font-size="14.00">value = [35, 56]</text>
</g>
<!-- 9&#45;&gt;13 -->
<g id="edge13" class="edge">
<title>9&#45;&gt;13</title>
<path fill="none" stroke="black" d="M610.17,-306.89C619.5,-280.49 633.79,-240.06 644.25,-210.46"/>
<polygon fill="black" stroke="black" points="647.52,-211.72 647.55,-201.13 640.92,-209.39 647.52,-211.72"/>
</g>
<!-- 11 -->
<g id="node12" class="node">
<title>11</title>
<polygon fill="#399de5" stroke="black" points="497.75,-36 407.5,-36 407.5,0 497.75,0 497.75,-36"/>
<text text-anchor="middle" x="452.62" y="-12.57" font-family="Helvetica,sans-Serif" font-size="14.00">samples = 4</text>
</g>
<!-- 10&#45;&gt;11 -->
<g id="edge11" class="edge">
<title>10&#45;&gt;11</title>
<path fill="none" stroke="black" d="M528.18,-143.52C511.5,-116.02 485.82,-73.71 469.12,-46.19"/>
<polygon fill="black" stroke="black" points="472.16,-44.45 463.98,-37.72 466.18,-48.08 472.16,-44.45"/>
</g>
<!-- 12 -->
<g id="node13" class="node">
<title>12</title>
<polygon fill="#f2be99" stroke="black" points="599.5,-36 501.75,-36 501.75,0 599.5,0 599.5,-36"/>
<text text-anchor="middle" x="550.62" y="-12.57" font-family="Helvetica,sans-Serif" font-size="14.00">samples = 49</text>
</g>
<!-- 10&#45;&gt;12 -->
<g id="edge12" class="edge">
<title>10&#45;&gt;12</title>
<path fill="none" stroke="black" d="M545.7,-143.52C546.77,-116.51 548.4,-75.2 549.49,-47.66"/>
<polygon fill="black" stroke="black" points="552.98,-48.07 549.88,-37.94 545.98,-47.79 552.98,-48.07"/>
</g>
<!-- 14 -->
<g id="node15" class="node">
<title>14</title>
<polygon fill="#8dc7f0" stroke="black" points="701.5,-36 603.75,-36 603.75,0 701.5,0 701.5,-36"/>
<text text-anchor="middle" x="652.62" y="-12.57" font-family="Helvetica,sans-Serif" font-size="14.00">samples = 67</text>
</g>
<!-- 13&#45;&gt;14 -->
<g id="edge14" class="edge">
<title>13&#45;&gt;14</title>
<path fill="none" stroke="black" d="M656.73,-143.52C655.84,-116.51 654.48,-75.2 653.57,-47.66"/>
<polygon fill="black" stroke="black" points="657.08,-47.82 653.25,-37.94 650.08,-48.05 657.08,-47.82"/>
</g>
<!-- 15 -->
<g id="node16" class="node">
<title>15</title>
<polygon fill="#f5cdb0" stroke="black" points="803.5,-36 705.75,-36 705.75,0 803.5,0 803.5,-36"/>
<text text-anchor="middle" x="754.62" y="-12.57" font-family="Helvetica,sans-Serif" font-size="14.00">samples = 24</text>
</g>
<!-- 13&#45;&gt;15 -->
<g id="edge15" class="edge">
<title>13&#45;&gt;15</title>
<path fill="none" stroke="black" d="M674.97,-143.52C692.63,-115.9 719.86,-73.34 737.46,-45.83"/>
<polygon fill="black" stroke="black" points="740.22,-48.01 742.66,-37.7 734.32,-44.24 740.22,-48.01"/>
</g>
<!-- 17 -->
<g id="node18" class="node">
<title>17</title>
<polygon fill="#f7dac5" stroke="black" points="1030.12,-362.5 921.12,-362.5 921.12,-307.25 1030.12,-307.25 1030.12,-362.5"/>
<text text-anchor="middle" x="975.62" y="-345.2" font-family="Helvetica,sans-Serif" font-size="14.00">age &lt;= 38.5</text>
<text text-anchor="middle" x="975.62" y="-329.45" font-family="Helvetica,sans-Serif" font-size="14.00">samples = 99</text>
<text text-anchor="middle" x="975.62" y="-313.7" font-family="Helvetica,sans-Serif" font-size="14.00">value = [58, 41]</text>
</g>
<!-- 16&#45;&gt;17 -->
<g id="edge17" class="edge">
<title>16&#45;&gt;17</title>
<path fill="none" stroke="black" d="M975.62,-470.14C975.62,-443.86 975.62,-403.67 975.62,-374.11"/>
<polygon fill="black" stroke="black" points="979.13,-374.47 975.63,-364.47 972.13,-374.47 979.13,-374.47"/>
</g>
<!-- 24 -->
<g id="node25" class="node">
<title>24</title>
<polygon fill="#a5d2f3" stroke="black" points="1347.12,-362.5 1214.12,-362.5 1214.12,-307.25 1347.12,-307.25 1347.12,-362.5"/>
<text text-anchor="middle" x="1280.62" y="-345.2" font-family="Helvetica,sans-Serif" font-size="14.00">priors_count &lt;= 3.5</text>
<text text-anchor="middle" x="1280.62" y="-329.45" font-family="Helvetica,sans-Serif" font-size="14.00">samples = 499</text>
<text text-anchor="middle" x="1280.62" y="-313.7" font-family="Helvetica,sans-Serif" font-size="14.00">value = [176, 323]</text>
</g>
<!-- 16&#45;&gt;24 -->
<g id="edge24" class="edge">
<title>16&#45;&gt;24</title>
<path fill="none" stroke="black" d="M1026.68,-470.14C1079.79,-442.06 1162.95,-398.09 1219.52,-368.18"/>
<polygon fill="black" stroke="black" points="1220.87,-371.43 1228.07,-363.66 1217.59,-365.24 1220.87,-371.43"/>
</g>
<!-- 18 -->
<g id="node19" class="node">
<title>18</title>
<polygon fill="#e6f3fc" stroke="black" points="957.38,-199.25 825.88,-199.25 825.88,-144 957.38,-144 957.38,-199.25"/>
<text text-anchor="middle" x="891.62" y="-181.95" font-family="Helvetica,sans-Serif" font-size="14.00">jail_duration &lt;= 1.5</text>
<text text-anchor="middle" x="891.62" y="-166.2" font-family="Helvetica,sans-Serif" font-size="14.00">samples = 60</text>
<text text-anchor="middle" x="891.62" y="-150.45" font-family="Helvetica,sans-Serif" font-size="14.00">value = [28, 32]</text>
</g>
<!-- 17&#45;&gt;18 -->
<g id="edge18" class="edge">
<title>17&#45;&gt;18</title>
<path fill="none" stroke="black" d="M961.57,-306.89C947.69,-280.26 926.38,-239.35 910.93,-209.68"/>
<polygon fill="black" stroke="black" points="914.15,-208.3 906.43,-201.05 907.95,-211.53 914.15,-208.3"/>
</g>
<!-- 21 -->
<g id="node22" class="node">
<title>21</title>
<polygon fill="#eda774" stroke="black" points="1160.12,-199.25 961.12,-199.25 961.12,-144 1160.12,-144 1160.12,-199.25"/>
<text text-anchor="middle" x="1060.62" y="-181.95" font-family="Helvetica,sans-Serif" font-size="14.00">MaritalStatus_Divorced &lt;= 0.5</text>
<text text-anchor="middle" x="1060.62" y="-166.2" font-family="Helvetica,sans-Serif" font-size="14.00">samples = 39</text>
<text text-anchor="middle" x="1060.62" y="-150.45" font-family="Helvetica,sans-Serif" font-size="14.00">value = [30, 9]</text>
</g>
<!-- 17&#45;&gt;21 -->
<g id="edge21" class="edge">
<title>17&#45;&gt;21</title>
<path fill="none" stroke="black" d="M989.85,-306.89C1003.89,-280.26 1025.45,-239.35 1041.09,-209.68"/>
<polygon fill="black" stroke="black" points="1044.08,-211.52 1045.65,-201.04 1037.89,-208.26 1044.08,-211.52"/>
</g>
<!-- 19 -->
<g id="node20" class="node">
<title>19</title>
<polygon fill="#f5d0b5" stroke="black" points="905.5,-36 807.75,-36 807.75,0 905.5,0 905.5,-36"/>
<text text-anchor="middle" x="856.62" y="-12.57" font-family="Helvetica,sans-Serif" font-size="14.00">samples = 39</text>
</g>
<!-- 18&#45;&gt;19 -->
<g id="edge19" class="edge">
<title>18&#45;&gt;19</title>
<path fill="none" stroke="black" d="M885.37,-143.52C879.11,-116.39 869.51,-74.83 863.15,-47.29"/>
<polygon fill="black" stroke="black" points="866.65,-46.86 860.99,-37.9 859.83,-48.43 866.65,-46.86"/>
</g>
<!-- 20 -->
<g id="node21" class="node">
<title>20</title>
<polygon fill="#68b4eb" stroke="black" points="1007.5,-36 909.75,-36 909.75,0 1007.5,0 1007.5,-36"/>
<text text-anchor="middle" x="958.62" y="-12.57" font-family="Helvetica,sans-Serif" font-size="14.00">samples = 21</text>
</g>
<!-- 18&#45;&gt;20 -->
<g id="edge20" class="edge">
<title>18&#45;&gt;20</title>
<path fill="none" stroke="black" d="M903.6,-143.52C915.65,-116.27 934.12,-74.45 946.29,-46.92"/>
<polygon fill="black" stroke="black" points="949.47,-48.37 950.31,-37.81 943.07,-45.54 949.47,-48.37"/>
</g>
<!-- 22 -->
<g id="node23" class="node">
<title>22</title>
<polygon fill="#eca36e" stroke="black" points="1109.5,-36 1011.75,-36 1011.75,0 1109.5,0 1109.5,-36"/>
<text text-anchor="middle" x="1060.62" y="-12.57" font-family="Helvetica,sans-Serif" font-size="14.00">samples = 38</text>
</g>
<!-- 21&#45;&gt;22 -->
<g id="edge22" class="edge">
<title>21&#45;&gt;22</title>
<path fill="none" stroke="black" d="M1060.62,-143.52C1060.62,-116.51 1060.62,-75.2 1060.62,-47.66"/>
<polygon fill="black" stroke="black" points="1064.13,-47.94 1060.63,-37.94 1057.13,-47.94 1064.13,-47.94"/>
</g>
<!-- 23 -->
<g id="node24" class="node">
<title>23</title>
<polygon fill="#399de5" stroke="black" points="1203.75,-36 1113.5,-36 1113.5,0 1203.75,0 1203.75,-36"/>
<text text-anchor="middle" x="1158.62" y="-12.57" font-family="Helvetica,sans-Serif" font-size="14.00">samples = 1</text>
</g>
<!-- 21&#45;&gt;23 -->
<g id="edge23" class="edge">
<title>21&#45;&gt;23</title>
<path fill="none" stroke="black" d="M1078.15,-143.52C1095.99,-115.9 1123.51,-73.34 1141.29,-45.83"/>
<polygon fill="black" stroke="black" points="1144.05,-48 1146.54,-37.7 1138.17,-44.2 1144.05,-48"/>
</g>
<!-- 25 -->
<g id="node26" class="node">
<title>25</title>
<polygon fill="#d2e9f9" stroke="black" points="1396.62,-199.25 1164.62,-199.25 1164.62,-144 1396.62,-144 1396.62,-199.25"/>
<text text-anchor="middle" x="1280.62" y="-181.95" font-family="Helvetica,sans-Serif" font-size="14.00">RiskOfViolence_DecileScore &lt;= 5.5</text>
<text text-anchor="middle" x="1280.62" y="-166.2" font-family="Helvetica,sans-Serif" font-size="14.00">samples = 172</text>
<text text-anchor="middle" x="1280.62" y="-150.45" font-family="Helvetica,sans-Serif" font-size="14.00">value = [75, 97]</text>
</g>
<!-- 24&#45;&gt;25 -->
<g id="edge25" class="edge">
<title>24&#45;&gt;25</title>
<path fill="none" stroke="black" d="M1280.62,-306.89C1280.62,-280.61 1280.62,-240.42 1280.62,-210.86"/>
<polygon fill="black" stroke="black" points="1284.13,-211.22 1280.63,-201.22 1277.13,-211.22 1284.13,-211.22"/>
</g>
<!-- 28 -->
<g id="node29" class="node">
<title>28</title>
<polygon fill="#91c9f1" stroke="black" points="1540.12,-199.25 1401.12,-199.25 1401.12,-144 1540.12,-144 1540.12,-199.25"/>
<text text-anchor="middle" x="1470.62" y="-181.95" font-family="Helvetica,sans-Serif" font-size="14.00">jail_duration &lt;= 66.0</text>
<text text-anchor="middle" x="1470.62" y="-166.2" font-family="Helvetica,sans-Serif" font-size="14.00">samples = 327</text>
<text text-anchor="middle" x="1470.62" y="-150.45" font-family="Helvetica,sans-Serif" font-size="14.00">value = [101, 226]</text>
</g>
<!-- 24&#45;&gt;28 -->
<g id="edge28" class="edge">
<title>24&#45;&gt;28</title>
<path fill="none" stroke="black" d="M1312.43,-306.89C1344.76,-279.44 1394.97,-236.83 1430.13,-207"/>
<polygon fill="black" stroke="black" points="1432.21,-209.82 1437.57,-200.68 1427.68,-204.48 1432.21,-209.82"/>
</g>
<!-- 26 -->
<g id="node27" class="node">
<title>26</title>
<polygon fill="#fbebe0" stroke="black" points="1305.5,-36 1207.75,-36 1207.75,0 1305.5,0 1305.5,-36"/>
<text text-anchor="middle" x="1256.62" y="-12.57" font-family="Helvetica,sans-Serif" font-size="14.00">samples = 94</text>
</g>
<!-- 25&#45;&gt;26 -->
<g id="edge26" class="edge">
<title>25&#45;&gt;26</title>
<path fill="none" stroke="black" d="M1276.33,-143.52C1272.06,-116.51 1265.52,-75.2 1261.16,-47.66"/>
<polygon fill="black" stroke="black" points="1264.64,-47.25 1259.62,-37.92 1257.73,-48.34 1264.64,-47.25"/>
</g>
<!-- 27 -->
<g id="node28" class="node">
<title>27</title>
<polygon fill="#91c9f1" stroke="black" points="1407.5,-36 1309.75,-36 1309.75,0 1407.5,0 1407.5,-36"/>
<text text-anchor="middle" x="1358.62" y="-12.57" font-family="Helvetica,sans-Serif" font-size="14.00">samples = 78</text>
</g>
<!-- 25&#45;&gt;27 -->
<g id="edge27" class="edge">
<title>25&#45;&gt;27</title>
<path fill="none" stroke="black" d="M1294.57,-143.52C1308.65,-116.15 1330.29,-74.08 1344.45,-46.55"/>
<polygon fill="black" stroke="black" points="1347.51,-48.27 1348.97,-37.77 1341.28,-45.06 1347.51,-48.27"/>
</g>
<!-- 29 -->
<g id="node30" class="node">
<title>29</title>
<polygon fill="#87c4ef" stroke="black" points="1517.25,-36 1412,-36 1412,0 1517.25,0 1517.25,-36"/>
<text text-anchor="middle" x="1464.62" y="-12.57" font-family="Helvetica,sans-Serif" font-size="14.00">samples = 279</text>
</g>
<!-- 28&#45;&gt;29 -->
<g id="edge29" class="edge">
<title>28&#45;&gt;29</title>
<path fill="none" stroke="black" d="M1469.55,-143.52C1468.48,-116.51 1466.85,-75.2 1465.76,-47.66"/>
<polygon fill="black" stroke="black" points="1469.27,-47.79 1465.37,-37.94 1462.27,-48.07 1469.27,-47.79"/>
</g>
<!-- 30 -->
<g id="node31" class="node">
<title>30</title>
<polygon fill="#e1f0fb" stroke="black" points="1619.5,-36 1521.75,-36 1521.75,0 1619.5,0 1619.5,-36"/>
<text text-anchor="middle" x="1570.62" y="-12.57" font-family="Helvetica,sans-Serif" font-size="14.00">samples = 48</text>
</g>
<!-- 28&#45;&gt;30 -->
<g id="edge30" class="edge">
<title>28&#45;&gt;30</title>
<path fill="none" stroke="black" d="M1488.5,-143.52C1506.72,-115.9 1534.79,-73.34 1552.93,-45.83"/>
<polygon fill="black" stroke="black" points="1555.72,-47.96 1558.3,-37.69 1549.87,-44.11 1555.72,-47.96"/>
</g>
</g>
</svg>
