<?xml version="1.0" encoding="UTF-8" standalone="no"?>
<!DOCTYPE svg PUBLIC "-//W3C//DTD SVG 1.1//EN"
 "http://www.w3.org/Graphics/SVG/1.1/DTD/svg11.dtd">
<!-- Generated by graphviz version 12.2.1 (20241206.2353)
 -->
<!-- Title: Tree Pages: 1 -->
<svg width="576pt" height="264pt"
 viewBox="0.00 0.00 576.00 264.01" xmlns="http://www.w3.org/2000/svg" xmlns:xlink="http://www.w3.org/1999/xlink">
<g id="graph0" class="graph" transform="scale(0.312619 0.312619) rotate(0) translate(4 840.5)">
<title>Tree</title>
<polygon fill="white" stroke="none" points="-4,4 -4,-840.5 1838.5,-840.5 1838.5,4 -4,4"/>
<!-- 0 -->
<g id="node1" class="node">
<title>0</title>
<polygon fill="#ffffff" stroke="black" points="1019.75,-836.5 787.75,-836.5 787.75,-781.25 1019.75,-781.25 1019.75,-836.5"/>
<text text-anchor="middle" x="903.75" y="-819.2" font-family="Helvetica,sans-Serif" font-size="14.00">RiskOfViolence_DecileScore &lt;= 5.5</text>
<text text-anchor="middle" x="903.75" y="-803.45" font-family="Helvetica,sans-Serif" font-size="14.00">samples = 1306</text>
<text text-anchor="middle" x="903.75" y="-787.7" font-family="Helvetica,sans-Serif" font-size="14.00">value = [653, 653]</text>
</g>
<!-- 1 -->
<g id="node2" class="node">
<title>1</title>
<polygon fill="#f7d6bf" stroke="black" points="783,-637.25 636.5,-637.25 636.5,-582 783,-582 783,-637.25"/>
<text text-anchor="middle" x="709.75" y="-619.95" font-family="Helvetica,sans-Serif" font-size="14.00">priors_count &lt;= 3.5</text>
<text text-anchor="middle" x="709.75" y="-604.2" font-family="Helvetica,sans-Serif" font-size="14.00">samples = 804</text>
<text text-anchor="middle" x="709.75" y="-588.45" font-family="Helvetica,sans-Serif" font-size="14.00">value = [480.0, 324.0]</text>
</g>
<!-- 0&#45;&gt;1 -->
<g id="edge1" class="edge">
<title>0&#45;&gt;1</title>
<path fill="none" stroke="black" d="M877.18,-780.86C842.6,-745.7 782.09,-684.17 744.06,-645.51"/>
<polygon fill="black" stroke="black" points="746.88,-643.38 737.37,-638.71 741.89,-648.29 746.88,-643.38"/>
<text text-anchor="middle" x="736.1" y="-657.2" font-family="Helvetica,sans-Serif" font-size="14.00">True</text>
</g>
<!-- 16 -->
<g id="node17" class="node">
<title>16</title>
<polygon fill="#a1d1f3" stroke="black" points="1215.25,-637.25 1082.25,-637.25 1082.25,-582 1215.25,-582 1215.25,-637.25"/>
<text text-anchor="middle" x="1148.75" y="-619.95" font-family="Helvetica,sans-Serif" font-size="14.00">priors_count &lt;= 2.5</text>
<text text-anchor="middle" x="1148.75" y="-604.2" font-family="Helvetica,sans-Serif" font-size="14.00">samples = 502</text>
<text text-anchor="middle" x="1148.75" y="-588.45" font-family="Helvetica,sans-Serif" font-size="14.00">value = [173, 329]</text>
</g>
<!-- 0&#45;&gt;16 -->
<g id="edge16" class="edge">
<title>0&#45;&gt;16</title>
<path fill="none" stroke="black" d="M937.3,-780.86C981.26,-745.47 1058.36,-683.4 1106.32,-644.79"/>
<polygon fill="black" stroke="black" points="1108.44,-647.57 1114.03,-638.58 1104.05,-642.12 1108.44,-647.57"/>
<text text-anchor="middle" x="1112.53" y="-657.06" font-family="Helvetica,sans-Serif" font-size="14.00">False</text>
</g>
<!-- 2 -->
<g id="node3" class="node">
<title>2</title>
<polygon fill="#f2c19e" stroke="black" points="471,-438 324.5,-438 324.5,-382.75 471,-382.75 471,-438"/>
<text text-anchor="middle" x="397.75" y="-420.7" font-family="Helvetica,sans-Serif" font-size="14.00">jail_duration &lt;= 1.5</text>
<text text-anchor="middle" x="397.75" y="-404.95" font-family="Helvetica,sans-Serif" font-size="14.00">samples = 552</text>
<text text-anchor="middle" x="397.75" y="-389.2" font-family="Helvetica,sans-Serif" font-size="14.00">value = [366.0, 186.0]</text>
</g>
<!-- 1&#45;&gt;2 -->
<g id="edge2" class="edge">
<title>1&#45;&gt;2</title>
<path fill="none" stroke="black" d="M667.02,-581.61C610.47,-545.86 510.82,-482.86 449.89,-444.34"/>
<polygon fill="black" stroke="black" points="452.06,-441.57 441.74,-439.19 448.32,-447.49 452.06,-441.57"/>
</g>
<!-- 9 -->
<g id="node10" class="node">
<title>9</title>
<polygon fill="#ddeefa" stroke="black" points="784.12,-438 635.38,-438 635.38,-382.75 784.12,-382.75 784.12,-438"/>
<text text-anchor="middle" x="709.75" y="-420.7" font-family="Helvetica,sans-Serif" font-size="14.00">v_decile_score &lt;= 2.5</text>
<text text-anchor="middle" x="709.75" y="-404.95" font-family="Helvetica,sans-Serif" font-size="14.00">samples = 252</text>
<text text-anchor="middle" x="709.75" y="-389.2" font-family="Helvetica,sans-Serif" font-size="14.00">value = [114, 138]</text>
</g>
<!-- 1&#45;&gt;9 -->
<g id="edge9" class="edge">
<title>1&#45;&gt;9</title>
<path fill="none" stroke="black" d="M709.75,-581.61C709.75,-547.48 709.75,-488.51 709.75,-449.72"/>
<polygon fill="black" stroke="black" points="713.25,-449.89 709.75,-439.89 706.25,-449.89 713.25,-449.89"/>
</g>
<!-- 3 -->
<g id="node4" class="node">
<title>3</title>
<polygon fill="#f0b78e" stroke="black" points="278.62,-238.75 114.88,-238.75 114.88,-183.5 278.62,-183.5 278.62,-238.75"/>
<text text-anchor="middle" x="196.75" y="-221.45" font-family="Helvetica,sans-Serif" font-size="14.00">c_charge_degree &lt;= 1.5</text>
<text text-anchor="middle" x="196.75" y="-205.7" font-family="Helvetica,sans-Serif" font-size="14.00">samples = 370</text>
<text text-anchor="middle" x="196.75" y="-189.95" font-family="Helvetica,sans-Serif" font-size="14.00">value = [259, 111]</text>
</g>
<!-- 2&#45;&gt;3 -->
<g id="edge3" class="edge">
<title>2&#45;&gt;3</title>
<path fill="none" stroke="black" d="M370.22,-382.36C334.39,-347.2 271.7,-285.67 232.3,-247.01"/>
<polygon fill="black" stroke="black" points="234.94,-244.69 225.35,-240.19 230.03,-249.69 234.94,-244.69"/>
</g>
<!-- 6 -->
<g id="node7" class="node">
<title>6</title>
<polygon fill="#f7d9c4" stroke="black" points="474.38,-238.75 321.12,-238.75 321.12,-183.5 474.38,-183.5 474.38,-238.75"/>
<text text-anchor="middle" x="397.75" y="-221.45" font-family="Helvetica,sans-Serif" font-size="14.00">juv_misd_count &lt;= 0.5</text>
<text text-anchor="middle" x="397.75" y="-205.7" font-family="Helvetica,sans-Serif" font-size="14.00">samples = 182</text>
<text text-anchor="middle" x="397.75" y="-189.95" font-family="Helvetica,sans-Serif" font-size="14.00">value = [107, 75]</text>
</g>
<!-- 2&#45;&gt;6 -->
<g id="edge6" class="edge">
<title>2&#45;&gt;6</title>
<path fill="none" stroke="black" d="M397.75,-382.36C397.75,-348.23 397.75,-289.26 397.75,-250.47"/>
<polygon fill="black" stroke="black" points="401.25,-250.64 397.75,-240.64 394.25,-250.64 401.25,-250.64"/>
</g>
<!-- 4 -->
<g id="node5" class="node">
<title>4</title>
<polygon fill="#f5d0b6" stroke="black" points="131.5,-39.5 0,-39.5 0,0 131.5,0 131.5,-39.5"/>
<text text-anchor="middle" x="65.75" y="-22.2" font-family="Helvetica,sans-Serif" font-size="14.00">samples = 137</text>
<text text-anchor="middle" x="65.75" y="-6.45" font-family="Helvetica,sans-Serif" font-size="14.00">value = [84.0, 53.0]</text>
</g>
<!-- 3&#45;&gt;4 -->
<g id="edge4" class="edge">
<title>3&#45;&gt;4</title>
<path fill="none" stroke="black" d="M178.26,-183.39C153.66,-147.83 110.35,-85.23 85.25,-48.94"/>
<polygon fill="black" stroke="black" points="88.41,-47.36 79.85,-41.13 82.66,-51.34 88.41,-47.36"/>
</g>
<!-- 5 -->
<g id="node6" class="node">
<title>5</title>
<polygon fill="#eeab7b" stroke="black" points="255,-39.5 138.5,-39.5 138.5,0 255,0 255,-39.5"/>
<text text-anchor="middle" x="196.75" y="-22.2" font-family="Helvetica,sans-Serif" font-size="14.00">samples = 233</text>
<text text-anchor="middle" x="196.75" y="-6.45" font-family="Helvetica,sans-Serif" font-size="14.00">value = [175, 58]</text>
</g>
<!-- 3&#45;&gt;5 -->
<g id="edge5" class="edge">
<title>3&#45;&gt;5</title>
<path fill="none" stroke="black" d="M196.75,-183.39C196.75,-148.59 196.75,-87.88 196.75,-51.29"/>
<polygon fill="black" stroke="black" points="200.25,-51.4 196.75,-41.4 193.25,-51.4 200.25,-51.4"/>
</g>
<!-- 7 -->
<g id="node8" class="node">
<title>7</title>
<polygon fill="#f6d3bb" stroke="black" points="379,-39.5 262.5,-39.5 262.5,0 379,0 379,-39.5"/>
<text text-anchor="middle" x="320.75" y="-22.2" font-family="Helvetica,sans-Serif" font-size="14.00">samples = 177</text>
<text text-anchor="middle" x="320.75" y="-6.45" font-family="Helvetica,sans-Serif" font-size="14.00">value = [107, 70]</text>
</g>
<!-- 6&#45;&gt;7 -->
<g id="edge7" class="edge">
<title>6&#45;&gt;7</title>
<path fill="none" stroke="black" d="M386.88,-183.39C372.6,-148.28 347.62,-86.82 332.78,-50.34"/>
<polygon fill="black" stroke="black" points="336.11,-49.23 329.1,-41.28 329.62,-51.87 336.11,-49.23"/>
</g>
<!-- 8 -->
<g id="node9" class="node">
<title>8</title>
<polygon fill="#399de5" stroke="black" points="479.75,-39.5 385.75,-39.5 385.75,0 479.75,0 479.75,-39.5"/>
<text text-anchor="middle" x="432.75" y="-22.2" font-family="Helvetica,sans-Serif" font-size="14.00">samples = 5</text>
<text text-anchor="middle" x="432.75" y="-6.45" font-family="Helvetica,sans-Serif" font-size="14.00">value = [0, 5]</text>
</g>
<!-- 6&#45;&gt;8 -->
<g id="edge8" class="edge">
<title>6&#45;&gt;8</title>
<path fill="none" stroke="black" d="M402.69,-183.39C409.15,-148.43 420.44,-87.35 427.19,-50.82"/>
<polygon fill="black" stroke="black" points="430.56,-51.84 428.94,-41.37 423.68,-50.57 430.56,-51.84"/>
</g>
<!-- 10 -->
<g id="node11" class="node">
<title>10</title>
<polygon fill="#f6d4bb" stroke="black" points="702.25,-238.75 569.25,-238.75 569.25,-183.5 702.25,-183.5 702.25,-238.75"/>
<text text-anchor="middle" x="635.75" y="-221.45" font-family="Helvetica,sans-Serif" font-size="14.00">priors_count &lt;= 6.5</text>
<text text-anchor="middle" x="635.75" y="-205.7" font-family="Helvetica,sans-Serif" font-size="14.00">samples = 58</text>
<text text-anchor="middle" x="635.75" y="-189.95" font-family="Helvetica,sans-Serif" font-size="14.00">value = [35, 23]</text>
</g>
<!-- 9&#45;&gt;10 -->
<g id="edge10" class="edge">
<title>9&#45;&gt;10</title>
<path fill="none" stroke="black" d="M699.62,-382.36C686.7,-347.93 664.3,-288.24 649.76,-249.47"/>
<polygon fill="black" stroke="black" points="653.2,-248.68 646.41,-240.54 646.65,-251.14 653.2,-248.68"/>
</g>
<!-- 13 -->
<g id="node14" class="node">
<title>13</title>
<polygon fill="#c1e0f7" stroke="black" points="858.12,-238.75 709.38,-238.75 709.38,-183.5 858.12,-183.5 858.12,-238.75"/>
<text text-anchor="middle" x="783.75" y="-221.45" font-family="Helvetica,sans-Serif" font-size="14.00">v_decile_score &lt;= 4.5</text>
<text text-anchor="middle" x="783.75" y="-205.7" font-family="Helvetica,sans-Serif" font-size="14.00">samples = 194</text>
<text text-anchor="middle" x="783.75" y="-189.95" font-family="Helvetica,sans-Serif" font-size="14.00">value = [79, 115]</text>
</g>
<!-- 9&#45;&gt;13 -->
<g id="edge13" class="edge">
<title>9&#45;&gt;13</title>
<path fill="none" stroke="black" d="M719.88,-382.36C732.8,-347.93 755.2,-288.24 769.74,-249.47"/>
<polygon fill="black" stroke="black" points="772.85,-251.14 773.09,-240.54 766.3,-248.68 772.85,-251.14"/>
</g>
<!-- 11 -->
<g id="node12" class="node">
<title>11</title>
<polygon fill="#eeab7b" stroke="black" points="596.25,-39.5 487.25,-39.5 487.25,0 596.25,0 596.25,-39.5"/>
<text text-anchor="middle" x="541.75" y="-22.2" font-family="Helvetica,sans-Serif" font-size="14.00">samples = 40</text>
<text text-anchor="middle" x="541.75" y="-6.45" font-family="Helvetica,sans-Serif" font-size="14.00">value = [30, 10]</text>
</g>
<!-- 10&#45;&gt;11 -->
<g id="edge11" class="edge">
<title>10&#45;&gt;11</title>
<path fill="none" stroke="black" d="M622.48,-183.39C604.98,-148.13 574.28,-86.29 556.21,-49.87"/>
<polygon fill="black" stroke="black" points="559.5,-48.64 551.92,-41.24 553.23,-51.75 559.5,-48.64"/>
</g>
<!-- 12 -->
<g id="node13" class="node">
<title>12</title>
<polygon fill="#85c3ef" stroke="black" points="704.5,-39.5 603,-39.5 603,0 704.5,0 704.5,-39.5"/>
<text text-anchor="middle" x="653.75" y="-22.2" font-family="Helvetica,sans-Serif" font-size="14.00">samples = 18</text>
<text text-anchor="middle" x="653.75" y="-6.45" font-family="Helvetica,sans-Serif" font-size="14.00">value = [5, 13]</text>
</g>
<!-- 10&#45;&gt;12 -->
<g id="edge12" class="edge">
<title>10&#45;&gt;12</title>
<path fill="none" stroke="black" d="M638.29,-183.39C641.6,-148.59 647.37,-87.88 650.85,-51.29"/>
<polygon fill="black" stroke="black" points="654.33,-51.67 651.79,-41.39 647.36,-51.01 654.33,-51.67"/>
</g>
<!-- 14 -->
<g id="node15" class="node">
<title>14</title>
<polygon fill="#acd6f4" stroke="black" points="820.25,-39.5 711.25,-39.5 711.25,0 820.25,0 820.25,-39.5"/>
<text text-anchor="middle" x="765.75" y="-22.2" font-family="Helvetica,sans-Serif" font-size="14.00">samples = 144</text>
<text text-anchor="middle" x="765.75" y="-6.45" font-family="Helvetica,sans-Serif" font-size="14.00">value = [53, 91]</text>
</g>
<!-- 13&#45;&gt;14 -->
<g id="edge14" class="edge">
<title>13&#45;&gt;14</title>
<path fill="none" stroke="black" d="M781.21,-183.39C777.9,-148.59 772.13,-87.88 768.65,-51.29"/>
<polygon fill="black" stroke="black" points="772.14,-51.01 767.71,-41.39 765.17,-51.67 772.14,-51.01"/>
</g>
<!-- 15 -->
<g id="node16" class="node">
<title>15</title>
<polygon fill="#fdf5f0" stroke="black" points="936.25,-39.5 827.25,-39.5 827.25,0 936.25,0 936.25,-39.5"/>
<text text-anchor="middle" x="881.75" y="-22.2" font-family="Helvetica,sans-Serif" font-size="14.00">samples = 50</text>
<text text-anchor="middle" x="881.75" y="-6.45" font-family="Helvetica,sans-Serif" font-size="14.00">value = [26, 24]</text>
</g>
<!-- 13&#45;&gt;15 -->
<g id="edge15" class="edge">
<title>13&#45;&gt;15</title>
<path fill="none" stroke="black" d="M797.58,-183.39C815.83,-148.13 847.83,-86.29 866.68,-49.87"/>
<polygon fill="black" stroke="black" points="869.67,-51.72 871.15,-41.23 863.45,-48.5 869.67,-51.72"/>
</g>
<!-- 17 -->
<g id="node18" class="node">
<title>17</title>
<polygon fill="#cee6f8" stroke="black" points="1264.75,-438 1032.75,-438 1032.75,-382.75 1264.75,-382.75 1264.75,-438"/>
<text text-anchor="middle" x="1148.75" y="-420.7" font-family="Helvetica,sans-Serif" font-size="14.00">RiskOfViolence_DecileScore &lt;= 6.5</text>
<text text-anchor="middle" x="1148.75" y="-404.95" font-family="Helvetica,sans-Serif" font-size="14.00">samples = 231</text>
<text text-anchor="middle" x="1148.75" y="-389.2" font-family="Helvetica,sans-Serif" font-size="14.00">value = [99, 132]</text>
</g>
<!-- 16&#45;&gt;17 -->
<g id="edge17" class="edge">
<title>16&#45;&gt;17</title>
<path fill="none" stroke="black" d="M1148.75,-581.61C1148.75,-547.48 1148.75,-488.51 1148.75,-449.72"/>
<polygon fill="black" stroke="black" points="1152.25,-449.89 1148.75,-439.89 1145.25,-449.89 1152.25,-449.89"/>
</g>
<!-- 24 -->
<g id="node25" class="node">
<title>24</title>
<polygon fill="#83c2ef" stroke="black" points="1552.25,-438 1413.25,-438 1413.25,-382.75 1552.25,-382.75 1552.25,-438"/>
<text text-anchor="middle" x="1482.75" y="-420.7" font-family="Helvetica,sans-Serif" font-size="14.00">jail_duration &lt;= 61.0</text>
<text text-anchor="middle" x="1482.75" y="-404.95" font-family="Helvetica,sans-Serif" font-size="14.00">samples = 271</text>
<text text-anchor="middle" x="1482.75" y="-389.2" font-family="Helvetica,sans-Serif" font-size="14.00">value = [74, 197]</text>
</g>
<!-- 16&#45;&gt;24 -->
<g id="edge24" class="edge">
<title>16&#45;&gt;24</title>
<path fill="none" stroke="black" d="M1194.49,-581.61C1255.16,-545.78 1362.15,-482.6 1427.33,-444.1"/>
<polygon fill="black" stroke="black" points="1428.89,-447.25 1435.72,-439.15 1425.33,-441.22 1428.89,-447.25"/>
</g>
<!-- 18 -->
<g id="node19" class="node">
<title>18</title>
<polygon fill="#f8e0ce" stroke="black" points="1169.88,-238.75 923.62,-238.75 923.62,-183.5 1169.88,-183.5 1169.88,-238.75"/>
<text text-anchor="middle" x="1046.75" y="-221.45" font-family="Helvetica,sans-Serif" font-size="14.00">MaritalStatus_Significant Other &lt;= 0.5</text>
<text text-anchor="middle" x="1046.75" y="-205.7" font-family="Helvetica,sans-Serif" font-size="14.00">samples = 63</text>
<text text-anchor="middle" x="1046.75" y="-189.95" font-family="Helvetica,sans-Serif" font-size="14.00">value = [36, 27]</text>
</g>
<!-- 17&#45;&gt;18 -->
<g id="edge18" class="edge">
<title>17&#45;&gt;18</title>
<path fill="none" stroke="black" d="M1134.78,-382.36C1116.9,-347.78 1085.84,-287.73 1065.8,-248.97"/>
<polygon fill="black" stroke="black" points="1069.11,-247.75 1061.41,-240.47 1062.89,-250.96 1069.11,-247.75"/>
</g>
<!-- 21 -->
<g id="node22" class="node">
<title>21</title>
<polygon fill="#b0d8f5" stroke="black" points="1326.12,-238.75 1177.38,-238.75 1177.38,-183.5 1326.12,-183.5 1326.12,-238.75"/>
<text text-anchor="middle" x="1251.75" y="-221.45" font-family="Helvetica,sans-Serif" font-size="14.00">v_decile_score &lt;= 6.5</text>
<text text-anchor="middle" x="1251.75" y="-205.7" font-family="Helvetica,sans-Serif" font-size="14.00">samples = 168</text>
<text text-anchor="middle" x="1251.75" y="-189.95" font-family="Helvetica,sans-Serif" font-size="14.00">value = [63, 105]</text>
</g>
<!-- 17&#45;&gt;21 -->
<g id="edge21" class="edge">
<title>17&#45;&gt;21</title>
<path fill="none" stroke="black" d="M1162.86,-382.36C1180.91,-347.78 1212.27,-287.73 1232.51,-248.97"/>
<polygon fill="black" stroke="black" points="1235.42,-250.95 1236.95,-240.47 1229.22,-247.71 1235.42,-250.95"/>
</g>
<!-- 19 -->
<g id="node20" class="node">
<title>19</title>
<polygon fill="#f6d5bd" stroke="black" points="1052.25,-39.5 943.25,-39.5 943.25,0 1052.25,0 1052.25,-39.5"/>
<text text-anchor="middle" x="997.75" y="-22.2" font-family="Helvetica,sans-Serif" font-size="14.00">samples = 60</text>
<text text-anchor="middle" x="997.75" y="-6.45" font-family="Helvetica,sans-Serif" font-size="14.00">value = [36, 24]</text>
</g>
<!-- 18&#45;&gt;19 -->
<g id="edge19" class="edge">
<title>18&#45;&gt;19</title>
<path fill="none" stroke="black" d="M1039.83,-183.39C1030.79,-148.43 1014.98,-87.35 1005.53,-50.82"/>
<polygon fill="black" stroke="black" points="1008.97,-50.15 1003.08,-41.35 1002.2,-51.91 1008.97,-50.15"/>
</g>
<!-- 20 -->
<g id="node21" class="node">
<title>20</title>
<polygon fill="#399de5" stroke="black" points="1153.75,-39.5 1059.75,-39.5 1059.75,0 1153.75,0 1153.75,-39.5"/>
<text text-anchor="middle" x="1106.75" y="-22.2" font-family="Helvetica,sans-Serif" font-size="14.00">samples = 3</text>
<text text-anchor="middle" x="1106.75" y="-6.45" font-family="Helvetica,sans-Serif" font-size="14.00">value = [0, 3]</text>
</g>
<!-- 18&#45;&gt;20 -->
<g id="edge20" class="edge">
<title>18&#45;&gt;20</title>
<path fill="none" stroke="black" d="M1055.22,-183.39C1066.3,-148.43 1085.65,-87.35 1097.22,-50.82"/>
<polygon fill="black" stroke="black" points="1100.55,-51.91 1100.23,-41.32 1093.87,-49.8 1100.55,-51.91"/>
</g>
<!-- 22 -->
<g id="node23" class="node">
<title>22</title>
<polygon fill="#399de5" stroke="black" points="1262.5,-39.5 1161,-39.5 1161,0 1262.5,0 1262.5,-39.5"/>
<text text-anchor="middle" x="1211.75" y="-22.2" font-family="Helvetica,sans-Serif" font-size="14.00">samples = 10</text>
<text text-anchor="middle" x="1211.75" y="-6.45" font-family="Helvetica,sans-Serif" font-size="14.00">value = [0, 10]</text>
</g>
<!-- 21&#45;&gt;22 -->
<g id="edge22" class="edge">
<title>21&#45;&gt;22</title>
<path fill="none" stroke="black" d="M1246.1,-183.39C1238.72,-148.43 1225.82,-87.35 1218.1,-50.82"/>
<polygon fill="black" stroke="black" points="1221.59,-50.42 1216.1,-41.36 1214.75,-51.87 1221.59,-50.42"/>
</g>
<!-- 23 -->
<g id="node24" class="node">
<title>23</title>
<polygon fill="#bcdef6" stroke="black" points="1378.25,-39.5 1269.25,-39.5 1269.25,0 1378.25,0 1378.25,-39.5"/>
<text text-anchor="middle" x="1323.75" y="-22.2" font-family="Helvetica,sans-Serif" font-size="14.00">samples = 158</text>
<text text-anchor="middle" x="1323.75" y="-6.45" font-family="Helvetica,sans-Serif" font-size="14.00">value = [63, 95]</text>
</g>
<!-- 21&#45;&gt;23 -->
<g id="edge23" class="edge">
<title>21&#45;&gt;23</title>
<path fill="none" stroke="black" d="M1261.91,-183.39C1275.26,-148.28 1298.63,-86.82 1312.5,-50.34"/>
<polygon fill="black" stroke="black" points="1315.66,-51.89 1315.94,-41.3 1309.11,-49.4 1315.66,-51.89"/>
</g>
<!-- 25 -->
<g id="node26" class="node">
<title>25</title>
<polygon fill="#74baed" stroke="black" points="1552.25,-238.75 1413.25,-238.75 1413.25,-183.5 1552.25,-183.5 1552.25,-238.75"/>
<text text-anchor="middle" x="1482.75" y="-221.45" font-family="Helvetica,sans-Serif" font-size="14.00">jail_duration &lt;= 38.5</text>
<text text-anchor="middle" x="1482.75" y="-205.7" font-family="Helvetica,sans-Serif" font-size="14.00">samples = 222</text>
<text text-anchor="middle" x="1482.75" y="-189.95" font-family="Helvetica,sans-Serif" font-size="14.00">value = [51, 171]</text>
</g>
<!-- 24&#45;&gt;25 -->
<g id="edge25" class="edge">
<title>24&#45;&gt;25</title>
<path fill="none" stroke="black" d="M1482.75,-382.36C1482.75,-348.23 1482.75,-289.26 1482.75,-250.47"/>
<polygon fill="black" stroke="black" points="1486.25,-250.64 1482.75,-240.64 1479.25,-250.64 1486.25,-250.64"/>
</g>
<!-- 28 -->
<g id="node29" class="node">
<title>28</title>
<polygon fill="#e8f4fc" stroke="black" points="1745,-238.75 1598.5,-238.75 1598.5,-183.5 1745,-183.5 1745,-238.75"/>
<text text-anchor="middle" x="1671.75" y="-221.45" font-family="Helvetica,sans-Serif" font-size="14.00">jail_duration &lt;= 184.0</text>
<text text-anchor="middle" x="1671.75" y="-205.7" font-family="Helvetica,sans-Serif" font-size="14.00">samples = 49</text>
<text text-anchor="middle" x="1671.75" y="-189.95" font-family="Helvetica,sans-Serif" font-size="14.00">value = [23, 26]</text>
</g>
<!-- 24&#45;&gt;28 -->
<g id="edge28" class="edge">
<title>24&#45;&gt;28</title>
<path fill="none" stroke="black" d="M1508.63,-382.36C1542.33,-347.2 1601.28,-285.67 1638.32,-247.01"/>
<polygon fill="black" stroke="black" points="1640.44,-249.86 1644.83,-240.22 1635.38,-245.02 1640.44,-249.86"/>
</g>
<!-- 26 -->
<g id="node27" class="node">
<title>26</title>
<polygon fill="#7dbfee" stroke="black" points="1502,-39.5 1385.5,-39.5 1385.5,0 1502,0 1502,-39.5"/>
<text text-anchor="middle" x="1443.75" y="-22.2" font-family="Helvetica,sans-Serif" font-size="14.00">samples = 200</text>
<text text-anchor="middle" x="1443.75" y="-6.45" font-family="Helvetica,sans-Serif" font-size="14.00">value = [51, 149]</text>
</g>
<!-- 25&#45;&gt;26 -->
<g id="edge26" class="edge">
<title>25&#45;&gt;26</title>
<path fill="none" stroke="black" d="M1477.24,-183.39C1470.05,-148.43 1457.47,-87.35 1449.94,-50.82"/>
<polygon fill="black" stroke="black" points="1453.44,-50.45 1448,-41.36 1446.58,-51.86 1453.44,-50.45"/>
</g>
<!-- 27 -->
<g id="node28" class="node">
<title>27</title>
<polygon fill="#399de5" stroke="black" points="1610.5,-39.5 1509,-39.5 1509,0 1610.5,0 1610.5,-39.5"/>
<text text-anchor="middle" x="1559.75" y="-22.2" font-family="Helvetica,sans-Serif" font-size="14.00">samples = 22</text>
<text text-anchor="middle" x="1559.75" y="-6.45" font-family="Helvetica,sans-Serif" font-size="14.00">value = [0, 22]</text>
</g>
<!-- 25&#45;&gt;27 -->
<g id="edge27" class="edge">
<title>25&#45;&gt;27</title>
<path fill="none" stroke="black" d="M1493.62,-183.39C1507.9,-148.28 1532.88,-86.82 1547.72,-50.34"/>
<polygon fill="black" stroke="black" points="1550.88,-51.87 1551.4,-41.28 1544.39,-49.23 1550.88,-51.87"/>
</g>
<!-- 29 -->
<g id="node30" class="node">
<title>29</title>
<polygon fill="#f6d3ba" stroke="black" points="1726.25,-39.5 1617.25,-39.5 1617.25,0 1726.25,0 1726.25,-39.5"/>
<text text-anchor="middle" x="1671.75" y="-22.2" font-family="Helvetica,sans-Serif" font-size="14.00">samples = 33</text>
<text text-anchor="middle" x="1671.75" y="-6.45" font-family="Helvetica,sans-Serif" font-size="14.00">value = [20, 13]</text>
</g>
<!-- 28&#45;&gt;29 -->
<g id="edge29" class="edge">
<title>28&#45;&gt;29</title>
<path fill="none" stroke="black" d="M1671.75,-183.39C1671.75,-148.59 1671.75,-87.88 1671.75,-51.29"/>
<polygon fill="black" stroke="black" points="1675.25,-51.4 1671.75,-41.4 1668.25,-51.4 1675.25,-51.4"/>
</g>
<!-- 30 -->
<g id="node31" class="node">
<title>30</title>
<polygon fill="#67b4eb" stroke="black" points="1834.5,-39.5 1733,-39.5 1733,0 1834.5,0 1834.5,-39.5"/>
<text text-anchor="middle" x="1783.75" y="-22.2" font-family="Helvetica,sans-Serif" font-size="14.00">samples = 16</text>
<text text-anchor="middle" x="1783.75" y="-6.45" font-family="Helvetica,sans-Serif" font-size="14.00">value = [3, 13]</text>
</g>
<!-- 28&#45;&gt;30 -->
<g id="edge30" class="edge">
<title>28&#45;&gt;30</title>
<path fill="none" stroke="black" d="M1687.56,-183.39C1708.5,-147.98 1745.3,-85.76 1766.8,-49.41"/>
<polygon fill="black" stroke="black" points="1769.59,-51.57 1771.66,-41.18 1763.56,-48.01 1769.59,-51.57"/>
</g>
</g>
</svg>
